<?xml version="1.0" standalone="no"?>
<!DOCTYPE svg PUBLIC "-//W3C//DTD SVG 1.1//EN" "http://www.w3.org/Graphics/SVG/1.1/DTD/svg11.dtd" >
<!--
2013-9-30: Created.
-->
<svg>
<metadata>
Created by iconfont
</metadata>
<defs>

<font id="iconfont" horiz-adv-x="1024" >
  <font-face
    font-family="iconfont"
    font-weight="500"
    font-stretch="normal"
    units-per-em="1024"
    ascent="896"
    descent="-128"
  />
    <missing-glyph />
    
    <glyph glyph-name="star" unicode="&#59573;" d="M1024 498.944l-353.792 51.424-158.208 320.576-158.208-320.576-353.792-51.424 256-249.536-60.448-352.352 316.448 166.368 316.448-166.368-60.448 352.352 256 249.536zM512 142.49599999999998l-223.456-117.472 42.688 248.832-180.8 176.224 249.856 36.288 111.744 226.4 111.744-226.4 249.824-36.288-180.8-176.224 42.688-248.832-223.456 117.472z"  horiz-adv-x="1025" />

    
    <glyph glyph-name="more1" unicode="&#58957;" d="M122.4 405.33333333m-122.4 0a15.3 15.3 0 1 1 244.8 0 15.3 15.3 0 1 1-244.8 0ZM512 405.33333333m-122.4 0a15.3 15.3 0 1 1 244.8 0 15.3 15.3 0 1 1-244.8 0ZM901.6 405.33333333m-122.4 0a15.3 15.3 0 1 1 244.8 0 15.3 15.3 0 1 1-244.8 0Z"  horiz-adv-x="1024" />

    
    <glyph glyph-name="flaged" unicode="&#59093;" d="M161.52380967 749.714286q0-41.142857-36.571429-62.857143l0-723.428571q0-7.428571-5.428571-12.857143t-12.857143-5.428571l-36.571429 0q-7.428571 0-12.857143 5.428571t-5.428571 12.857143l0 723.428571q-36.571429 21.714286-36.571429 62.857143 0 30.285714 21.428571 51.714286t51.714286 21.428571 51.714286-21.428571 21.428571-51.714286z m841.142857-36.571429l0-436q0-14.285714-7.142857-22t-22.571429-15.714286q-122.857143-66.285714-210.857143-66.285714-34.857143 0-70.571429 12.571429t-62 27.428571-66 27.428571-81.428571 12.571429q-109.714286 0-265.142857-83.428571-9.714286-5.142857-18.857143-5.142857-14.857143 0-25.714286 10.857143t-10.857143 25.714286l0 424q0 18.285714 17.714286 31.428571 12 8 45.142857 24.571429 134.857143 68.571429 240.571429 68.571429 61.142857 0 114.285714-16.571429t125.142857-50.285714q21.714286-10.857143 50.285714-10.857143 30.857143 0 67.142857 12t62.857143 26.857143 50.285714 26.857143 31.142857 12q14.857143 0 25.714286-10.857143t10.857143-25.714286z"  horiz-adv-x="1024" />

    
    <glyph glyph-name="checker" unicode="&#58887;" d="M735.00444445 670.72C735.00444445 793.88195385 635.16195385 893.72444445 512 893.72444445 388.83804615 893.72444445 288.99555555 793.88195385 288.99555555 670.72 288.99555555 547.55804615 388.83804615 447.71555555 512 447.71555555 635.16195385 447.71555555 735.00444445 547.55804615 735.00444445 670.72L735.00444445 670.72ZM352.71111111 670.72C352.71111111 758.69282418 424.02717582 830.00888889 512 830.00888889 599.97282418 830.00888889 671.28888889 758.69282418 671.28888889 670.72 671.28888889 582.7471758199999 599.97282418 511.43111111 512 511.43111111 424.02717582 511.43111111 352.71111111 582.7471758199999 352.71111111 670.72L352.71111111 670.72ZM512.05140253 447.71555555C283.74038755 447.71555555 97.84888889 269.23327147 97.84888889 48.828637869999966L97.84888889-93.86666666999997C97.84888889-111.46123264000005 112.11210183-125.72444444999996 129.70666667-125.72444444999996 147.3012315-125.72444444999996 161.56444445-111.46123264000005 161.56444445-93.86666666999997L161.56444445 48.828637869999966C161.56444445 233.45130269000003 318.3627685 384 512.05140253 384 554.1258661 384 595.13209742 376.91915491 633.70753934 363.25947278 650.29298859 357.38651533999996 668.49912263 366.07070435 674.37208121 382.65615132999994 680.24503865 399.24159943 671.56084963 417.44773461 654.97540153 423.32069205 609.58676195 439.39294777 561.38930062 447.71555555 512.05140253 447.71555555L512.05140253 447.71555555ZM671.58205781-25.32981645999996L953.09549454 256.18361913C965.3289472 268.41707293 985.52441856 268.44131669 997.96565675 256.00007965 1010.49362773 243.47210638 1010.43260643 223.41332651000005 998.02308039 211.00380614999995L683.76425586-103.25501952000002C671.27673173-115.74254705999999 651.20921827-115.63883293000004 638.76798237-103.19759474 638.41647161-102.84508387000005 638.3281664-102.75777535999998 638.24024349-102.66985585999998L526.122496 9.447895040000049C513.67631303 21.894078010000044 513.69249223 42.04912866999996 526.13372928 54.49035890000005 538.66170254 67.01833670999997 558.74116494 66.93662833999997 571.17619769 54.50159444999997L661.29483321-35.61703879000004 671.58205781-25.32981645999996 671.58205781-25.32981645999996Z"  horiz-adv-x="1024" />

    
    <glyph glyph-name="info" unicode="&#58900;" d="M509.96307514 813.2726841c58.49068999 0 115.19069525-11.43803449 168.52355867-33.9962516 51.55382045-21.80608227 97.86947811-53.03713223 137.66042511-92.83040939 39.79211207-39.79211207 71.02432711-86.10893369 92.83040939-137.66042509 22.5582171-53.33519246 33.99625159-110.03403264 33.99625158-168.52355869s-11.43803449-115.19069525-33.99625158-168.52355869c-21.80608227-51.55382045-53.03713223-97.87064206-92.83040939-137.66275413-39.79211207-39.79211207-86.10893369-71.02432711-137.66042511-92.83040939-53.33519246-22.5582171-110.03403264-33.99625159-168.52355867-33.99625158s-115.19069525 11.43803449-168.52355869 33.99625158c-51.55382045 21.80608227-97.86947811 53.03713223-137.66275414 92.83040939C163.98465024 113.86783858000001 132.7524352 160.18466020000005 110.94635293 211.73848064000003 88.38813696 265.07134407 76.95010247 321.77134933 76.95010247 380.26203933s11.43803449 115.19069525 33.9962516 168.52355869c21.80608227 51.55382045 53.03829731 97.87064206 92.83040939 137.66275413s86.10893369 71.02432711 137.66275413 92.83040939C394.77237988 801.83581355 451.472384 813.2726841 509.96307514 813.2726841M509.96307514 890.59351893c-281.84905387 0-510.33264355-228.48358969-510.33264357-510.33264355s228.48358969-510.33264355 510.33264357-510.33264355 510.33264355 228.48358969 510.33264355 510.33264355S791.81212786 890.59351893 509.96307514 890.59351893L509.96307514 890.59351893zM458.04366507 555.04717711l0 96.07762716 103.83765391 0 0-96.07762716L458.04366507 555.04717711zM458.04366507 109.39694650000001L458.04366507 501.83540053l103.83765391 0L561.88132011 109.39694650000001 458.04366507 109.39694650000001z"  horiz-adv-x="1024" />

    
    <glyph glyph-name="yuandianxiao" unicode="&#921615;" d="M522.66666666 416m-160 0a2.5 2.5 0 1 1 320 0 2.5 2.5 0 1 1-320 0Z"  horiz-adv-x="1024" />

    
    <glyph glyph-name="office" unicode="&#58983;" d="M938.879316 192.03198699999996l-63.999084 0 0 159.99522c0 17.666595-14.330457 31.992073-32.002032 31.992073L554.895768 384.01928l0 191.992272 63.989125 0c35.203729 0 64.004063 28.800335 64.004063 63.999084L682.888956 832.003904c0 35.198749-28.800335 63.996096-64.004063 63.996096L426.894613 896c-35.200741 0-63.996096-28.797347-63.996096-63.996096l0-191.994264c0-35.198749 28.795355-63.999084 63.996096-63.999084l63.996096 0 0-191.992272L202.903297 384.018284c-17.671575 0-32.002032-14.325478-32.002032-31.992073l0-159.99522-63.994104 0c-35.200741 0-63.999084-28.800335-63.999084-63.999084l0-191.992272c0-35.203729 28.797347-64.004063 63.999084-64.004063l191.992272 0c35.198749 0 63.999084 28.800335 63.999084 64.004063l0 191.992272c0 35.198749-28.800335 63.999084-63.999084 63.999084l-63.999084 0L234.900349 320.02418l575.97582 0 0-127.993188-63.989125 0c-35.198749 0-63.999084-28.800335-63.999084-63.999084l0-191.992272c0-35.203729 28.800335-64.004063 63.999084-64.004063l191.991276 0c35.198749 0 63.999084 28.800335 63.999084 64.004063l0 191.992272C1002.877404 163.23165200000005 974.07707 192.03198699999996 938.879316 192.03198699999996zM426.894613 832.003904l191.989285 0 0-191.994264L426.894613 640.00964 426.894613 832.003904zM298.899433-63.95936900000004l-191.992272 0 0 191.992272 191.992272 0L298.899433-63.95936900000004zM938.879316-63.95936900000004L746.887044-63.95936900000004l0 191.992272 191.991276 0L938.878321-63.95936900000004z"  horiz-adv-x="1024" />

    
    <glyph glyph-name="2" unicode="&#58882;" d="M512 896C230.4 896 0 665.6 0 384s230.4-512 512-512c281.6 0 512 230.4 512 512S793.6 896 512 896zM512-64c-249.6 0-448 198.4-448 448s198.4 448 448 448c249.6 0 448-198.4 448-448S755.2-64 512-64zM518.4 544C499.2 544 486.4 531.2 486.4 512l0-448c0-19.2 12.8-32 32-32s32 12.8 32 32L550.4 512C550.4 531.2 531.2 544 518.4 544zM512 684.8c-25.6 0-51.2-19.2-51.2-51.2 0-25.6 19.2-51.2 51.2-51.2 25.6 0 51.2 19.2 51.2 51.2C563.2 659.2 537.6 684.8 512 684.8z"  horiz-adv-x="1024" />

    
    <glyph glyph-name="yanjing" unicode="&#58929;" d="M512.38564295 126.53614420999997c188.35570688 0 443.84474453 192.48942649 461.60063147 245.40523179-6.92875719 57.9711067-247.38471026 267.61873181-461.60063147 267.61873181-203.77326933 0-461.72063517-166.98805817-461.74510194-268.89566436C56.00109454 320.45862457 303.53377053 126.53614420999997 512.38564295 126.53614420999997M512.38564295 75.20834901C298.40856405 75.20834901-0.63715555 276.59552541000005-0.63715555 370.22287644999994c0 148.36651349 300.83412423 320.66619165 513.0227985 320.66619164 232.19666944 0 513.02978901-225.65705045 513.02978902-320.66619164C1025.41543197 291.16490638000005 718.46694457 75.20834901 512.38564295 75.20834901L512.38564295 75.20834901 512.38564295 75.20834901 512.38564295 75.20834901zM512.38564295 75.20834901M512.38564295 254.79213511c70.69499392 0 128.26065123 57.56449223 128.26065124 128.26065124 0 70.69149867-57.56565731 128.25249565-128.26065124 128.25249564-70.69382883 0-128.25482581-57.56099698-128.25482581-128.25249564C384.13081714 312.35662734000005 441.69181411 254.79213511 512.38564295 254.79213511M512.38564295 203.46433991000004c-99.19295943 0-179.5837861 80.39548701-179.5837861 179.58844644 0 99.18946418 80.39082667 179.58145593 179.5837861 179.58145592 99.19878485 0 179.58728135-80.39082667 179.58728135-179.58145592C691.9729243 283.85982691000004 611.58442781 203.46433991000004 512.38564295 203.46433991000004L512.38564295 203.46433991000004 512.38564295 203.46433991000004 512.38564295 203.46433991000004zM512.38564295 203.46433991000004"  horiz-adv-x="1024" />

    
    <glyph glyph-name="edit" unicode="&#58940;" d="M986.70648135 654.97824123c21.67859887 21.67859887 21.67859887 54.1950832 0 75.87368209l-124.64982119 124.64982117c-21.67859887 21.67859887-54.1950832 21.67859887-75.87368207 0l-97.55227958-97.55227956 205.9438586-205.94385859L986.70648135 654.97824123zM27.44474881 102.18387193000001l0-205.9438586 205.94385858 0 596.1501531 601.5705098-205.94244602 205.94385858L27.44474881 102.18387193000001z"  horiz-adv-x="1024" />

    
    <glyph glyph-name="wenjiandocuments18" unicode="&#58897;" d="M186.181818 58.181818l325.818182 0 0-46.545455-325.818182 0 0 46.545455ZM837.818182 58.181818 837.818182 11.636364 930.909091 11.636364 930.909091 896 232.727273 896 232.727273 802.909091 279.272727 802.909091 279.272727 849.454545 884.363636 849.454545 884.363636 58.181818ZM186.181818 197.818182l512 0 0-46.545455-512 0 0 46.545455ZM93.090909 746.589091l0-864.814545C93.090909-123.624727 97.373091-128 102.679273-128l678.958545 0C786.990545-128 791.272727-123.671273 791.272727-118.225455L791.272727 746.589091C791.272727 751.988364 786.990545 756.363636 781.684364 756.363636L102.679273 756.363636C97.373091 756.363636 93.090909 752.034909 93.090909 746.589091zM139.636364 709.818182l605.090909 0 0-791.272727L139.636364-81.454545 139.636364 709.818182zM186.181818 616.727273l512 0 0-46.545455-512 0 0 46.545455ZM186.181818 477.090909l512 0 0-46.545455-512 0 0 46.545455ZM186.181818 337.454545l512 0 0-46.545455-512 0 0 46.545455Z"  horiz-adv-x="1024" />

    
    <glyph glyph-name="ren2" unicode="&#58914;" d="M512-539.6500000000001M989.181 578.528c-26.0822 61.728-63.4668 117.122-111.036 164.567-47.569 47.569-102.963 84.9535-164.567 111.036-63.8394 27.0758-131.653 40.738-201.579 40.738s-137.74-13.6621-201.579-40.738c-61.728-26.0822-117.122-63.4668-164.567-111.036s-84.9535-102.963-111.036-164.567c-27.0758-63.8394-40.738-131.653-40.738-201.579s13.6621-137.74 40.738-201.579c26.0822-61.728 63.4668-117.122 111.036-164.567 47.569-47.569 102.963-84.9535 164.567-111.036 63.8394-27.0758 131.653-40.738 201.579-40.738s137.74 13.6621 201.579 40.738c61.728 26.0822 117.122 63.4668 164.567 111.036 47.569 47.569 84.9535 102.963 111.036 164.567 27.0758 63.8394 40.738 131.653 40.738 201.579S1016.26 514.6890000000001 989.181 578.528ZM512-86.32100000000002c-110.539 0-212.135 38.875-291.748 103.708 3.60182 157.859 133.143 285.042 291.748 285.042s288.147-127.306 291.748-285.042C724.135-47.44500000000005 622.539-86.32100000000002 512-86.32100000000002ZM381.588 472.586c0 71.9124 58.4988 130.412 130.412 130.412 71.9124 0 130.412-58.4988 130.412-130.412 0-71.9124-58.4988-130.412-130.412-130.412C440.087 342.173 381.588 400.673 381.588 472.586ZM838.897 48.934999999999945c-8.44566 73.4028-41.1106 141.216-94.1445 194.252-41.4832 41.4832-92.0331 70.4221-147.054 85.202 49.0594 29.3115 82.097 82.9664 82.097 144.074 0 92.4057-75.2659 167.67-167.67 167.67-92.4057 0-167.67-75.2659-167.67-167.67 0-61.2311 32.9133-114.886 82.097-144.074-55.1453-14.7799-105.695-43.7187-147.054-85.202-53.0339-53.0339-85.6988-120.972-94.1445-194.252-84.2084 83.96-136.373 199.964-136.373 327.891 0 255.482 207.788 463.27 463.27 463.27 255.482 0 463.27-207.788 463.27-463.27C975.27 248.89800000000002 923.106 132.89499999999998 838.897 48.934999999999945Z"  horiz-adv-x="1024" />

    
    <glyph glyph-name="setting" unicode="&#58901;" d="M510.740494 629.735099c-132.898346 0-240.637295-107.736901-240.637295-240.637295 0-132.89937 107.738949-240.637295 240.637295-240.637295 132.900394 0 240.637295 107.737925 240.637295 240.637295C751.377789 521.998198 643.640888 629.735099 510.740494 629.735099zM510.740494 209.89981799999998c-98.96644 0-179.197986 80.230522-179.197986 179.197986 0 98.968488 80.231546 179.197986 179.197986 179.197986 98.968488 0 179.197986-80.229498 179.197986-179.197986C689.93848 290.129316 609.708982 209.89981799999998 510.740494 209.89981799999998zM932.441482 334.107574c-8.249251 10.023823-7.173039 14.822233-7.219119 16.981825-0.159742 7.174063-0.13619 55.514512 0 61.617483 0.046079 2.158568-1.030132 6.958002 7.219119 16.980801 18.367282 21.806859 67.815686 80.516215 88.681499 105.286497 5.215173 6.742964 1.731565 16.668485 1.731565 16.668485l-22.506243 37.185118-54.703513 90.399752-21.782283 35.982956c0 0-5.305284 10.373003-15.783759 7.567275-31.214241-6.743988-130.540101-27.816647-148.422012-31.609501-17.530683 11.078531-60.571991 38.278738-77.291675 48.838107-8.978331 5.960637-11.438975 13.766501-11.438975 13.766501s-34.110081 99.474338-45.478401 132.632109c-3.004382 10.395531-14.653275 9.567124-14.653275 9.567124l-42.155558 0.007168-105.89577 0-43.562518 0c0 0-10.324876-2.154472-13.418345-10.089359-10.496906-30.609064-35.372658-103.148409-44.612107-130.093642-4.346831-12.220279-9.023387-13.779813-10.854278-14.935896-17.709881-11.190146-64.498987-40.75679-80.660597-50.966979-18.066229 3.88194-120.345271 25.872093-151.621976 32.627345-10.478474 2.806752-15.782735-7.565227-15.782735-7.565227l-98.992039-163.569873c0 0-3.482585-9.92552 1.731565-16.666437 20.864789-24.771306 70.315242-83.481686 88.681499-105.287521 8.247203-10.023823 7.170991-14.822233 7.219119-16.981825 0.153598-7.013297 0.712696-72.526033-4.737995-77.294747-18.367282-21.805835-70.341865-81.562731-91.205631-106.335061-5.216197-6.740916-1.732589-16.667461-1.732589-16.667461l98.993063-163.568849c0 0 5.303236-10.373003 15.781711-7.565227 34.352766 7.420845 137.402872 29.69157 137.402872 29.69157s7.974822 1.93329 17.732409-2.654178c14.666587-7.303086 75.553967-37.844567 77.192348-38.882891 1.830891-1.155059 6.506423-2.714593 10.854278-14.934872 9.239448-26.944209 34.115201-99.484578 44.612107-130.093642 3.093469-7.934887 13.418345-10.089359 13.418345-10.089359l43.562518 0 105.89577 0 42.155558 0.007168c0 0 11.648893-0.829431 14.653275 9.567124 11.369344 33.158795 45.478401 132.632109 45.478401 132.632109s2.460644 7.805864 11.438975 13.766501c6.396856 4.039635 62.819646 34.16128 70.581479 38.026837 9.756562 4.586444 17.732409 2.654178 17.732409 2.654178s103.050106-22.270726 137.400824-29.69157c10.478474-2.807776 15.783759 7.565227 15.783759 7.565227l21.782283 35.98398 54.703513 90.398728 22.506243 37.186142c0 0 3.482585 9.926544-1.731565 16.667461C1000.257168 253.59238300000004 950.808764 312.301739 932.441482 334.107574zM945.870067 203.51217799999995c-10.476426-17.308477-36.138602-59.717985-49.459668-81.731689-5.052359-8.348578-12.13836-12.951406-18.437937-11.609982-24.074993 5.129158-84.546634 18.006838-107.939651 22.988542-16.575302 3.268571-25.155301-0.891894-28.096196-2.34903-14.406494-7.138224-99.610528-53.781923-107.778885-58.965353-2.769889-1.758188-10.777479-6.933426-16.533318-22.77248-7.805864-22.541059-27.983557-80.818292-36.017771-104.019823-2.101224-6.070204-9.713555-9.741203-19.493669-9.741203-25.787102 0-75.465904 0-95.742924 0-12.11788-0.056319-17.06784 11.069316-17.06784 11.069316s-28.354241 81.694826-37.803607 108.925752c-3.273691 7.327662-2.476004 9.780114-11.57107 14.731098-6.891443 4.375503-97.86258 51.876281-115.818218 60.773717-2.939871 1.457136-11.522942 5.617601-28.096196 2.34903-23.393017-4.981704-83.866705-17.859383-107.939651-22.988542-6.301625-1.342449-13.385578 3.261403-18.436913 11.609982-13.32209 22.013705-38.98529 64.423212-49.460692 81.731689-6.307769 10.313612 0.68812 20.28726 0.68812 20.28726s55.512464 66.40975 74.01696 88.543261c4.604876 6.578102 7.12184 7.163823 6.677429 17.486651 0.175102 7.306158 0.286717 93.786082 0.043008 103.883632 0.446459 10.321804-2.070505 10.908549-6.676405 17.485627-18.504496 22.134535-74.01696 88.544285-74.01696 88.544285s-6.995889 9.972624-0.68812 20.286236c10.474378 17.308477 36.138602 59.717985 49.459668 81.732713 5.052359 8.347554 12.136312 12.951406 18.437937 11.609982 24.072945-5.129158 84.546634-18.007862 107.939651-22.989566 23.893747-7.872424 36.506214 0.705528 40.849973 4.280272l0.023552-0.037888c0 0 77.24662 49.031641 102.996858 65.377569 9.095066 4.950984 8.297379 7.402413 11.57107 14.731098 9.449366 27.23195 37.803607 108.925752 37.803607 108.925752s4.94996 11.124611 17.06784 11.069316c20.27702 0 69.955822 0 95.742924 0 9.780114 0 17.392445-3.670999 19.493669-9.741203 8.034214-23.201531 28.211907-81.478764 36.017771-104.019823 5.754815-15.839054 13.762405-21.014292 16.533318-22.77248 23.189243-14.714715 89.314324-56.655235 99.012519-62.807358 0.984053-0.816119 17.815352-9.634708 36.861538-4.748235 20.761367 4.420558 70.737125 15.064919 98.544556 20.988692 3.520472 0.748536 20.64668 4.752331 27.833031-9.610132 13.321066-22.013705 38.982218-64.424236 49.459668-81.731689 6.307769-10.314636-0.68812-20.288284-0.68812-20.288284s-55.514512-66.408726-74.019008-88.542237c-4.604876-6.578102-7.12184-7.164847-6.675381-17.485627-0.288765-11.995001-0.244733-94.001119 0-104.139629-0.447483-10.322828 2.069481-10.908549 6.675381-17.486651 18.504496-22.133511 74.019008-88.543261 74.019008-88.543261S952.177836 213.82578999999998 945.870067 203.51217799999995z"  horiz-adv-x="1024" />

    
    <glyph glyph-name="target" unicode="&#58999;" d="M512.099902 607.2819509999999c123.479415 0 223.781463-100.302049 223.781463-223.781463s-100.302049-223.781463-223.781463-223.781463-223.781463 100.302049-223.781463 223.781463S388.820293 607.2819509999999 512.099902 607.2819509999999M512.099902 703.1882929999999c-176.627512 0-319.687805-143.060293-319.687805-319.687805 0-176.627512 143.060293-319.687805 319.687805-319.687805 176.627512 0 319.687805 143.060293 319.687805 319.687805C831.787707 560.1279999999999 688.727415 703.1882929999999 512.099902 703.1882929999999L512.099902 703.1882929999999zM512.099902 383.500488m-127.875122 0a64 64 0 1 1 255.750244 0 64 64 0 1 1-255.750244 0ZM512.099902 799.094634c229.176195 0 415.594146-186.417951 415.594146-415.594146s-186.417951-415.594146-415.594146-415.594146-415.594146 186.417951-415.594146 415.594146S282.923707 799.094634 512.099902 799.094634M512.099902 895.000976c-282.524098 0-511.500488-228.97639-511.500488-511.500488s228.97639-511.500488 511.500488-511.500488c282.524098 0 511.500488 228.97639 511.500488 511.500488S794.624 895.000976 512.099902 895.000976L512.099902 895.000976z"  horiz-adv-x="1024" />

    
    <glyph glyph-name="icon-setting" unicode="&#58982;" d="M516.493312 544.956416c43.292672 0 83.494912-17.770496 112.105472-46.381056l0 0c28.612608-29.411328 46.405632-68.839424 46.405632-112.930816 0-43.290624-17.793024-83.492864-46.405632-112.105472-28.612608-28.614656-68.814848-46.405632-112.105472-46.405632-44.091392 0-83.519488 17.793024-112.930816 46.405632l0 0c-28.61056 28.612608-46.381056 68.814848-46.381056 112.105472 0 44.091392 17.770496 83.519488 46.381056 112.930816l0 0 0 0C432.975872 527.187968 472.403968 544.956416 516.493312 544.956416L516.493312 544.956416zM599.988224 469.164032c-21.633024 21.659648-51.017728 34.791424-83.494912 34.791424-33.275904 0-62.631936-13.131776-83.519488-34.791424l0 0c-21.659648-20.887552-34.791424-50.245632-34.791424-83.519488 0-32.475136 13.131776-61.861888 34.791424-83.492864l0 0c20.887552-20.885504 50.243584-34.045952 83.519488-34.045952 32.475136 0 61.85984 13.160448 83.494912 34.045952 20.885504 21.633024 34.043904 51.017728 34.043904 83.492864C634.032128 418.9184 620.873728 448.27648 599.988224 469.164032L599.988224 469.164032zM775.524352 733.652992l44.86144-44.863488 48.728064-47.95392c7.725056-8.4992 7.725056-20.885504 0-29.35808-0.774144 0-0.774144-0.79872-1.54624-0.79872l-2.318336-2.316288 0 0-1.54624-1.54624c-16.252928-15.478784-23.975936-36.337664-23.975936-56.451072 0-20.885504 7.723008-40.972288 23.975936-57.225216 7.727104-7.723008 17.770496-13.90592 27.815936-17.795072 10.067968-3.835904 21.653504-6.178816 32.499712-5.380096 11.589632 0.745472 20.85888-7.75168 21.633024-19.339264 0-0.800768 0-1.54624 0-2.347008l0-62.631936 0-68.8128c0-11.589632-9.269248-20.887552-20.086784-20.887552l-1.54624 0.772096 0-0.772096-3.090432 0.772096-3.117056 0c-22.403072 0-42.520576-9.2672-56.449024-23.945216-14.680064-13.934592-23.95136-34.048-23.95136-56.451072 0-11.618304 3.09248-22.433792 6.95296-32.477184 4.636672-10.070016 11.589632-19.339264 20.113408-27.066368 8.497152-7.75168 8.497152-20.11136 1.548288-28.614656-0.774144-0.770048-1.548288-1.544192-1.548288-1.544192l-44.86144-44.86144-48.728064-48.728064c-7.723008-7.725056-20.85888-7.725056-28.61056 0-0.774144 0.774144-0.774144 0.774144-1.548288 1.54624l-1.542144 2.318336-0.772096 0-1.54624 1.54624c-15.45216 16.252928-36.337664 23.975936-56.45312 23.975936-20.885504 0-40.974336-7.723008-56.451072-23.975936-8.495104-7.727104-14.678016-17.770496-18.538496-27.815936-3.8912-10.067968-5.435392-21.653504-5.435392-32.499712 0.770048-11.589632-7.727104-20.85888-19.316736-21.633024-0.772096 0-0.772096 0-1.54624 0l-63.404032 0-68.839424 0c-10.815488 0-20.088832 9.269248-20.088832 20.086784l0 1.54624 0 0 0 3.090432 0 3.117056c0 22.403072-9.29792 42.520576-23.230464 56.449024-14.680064 14.680064-34.793472 23.95136-56.424448 23.95136-12.388352 0-23.20384-3.09248-33.247232-6.95296-10.072064-4.636672-19.341312-11.59168-27.068416-20.113408-6.977536-8.497152-20.113408-8.497152-28.61056-1.548288-0.79872 0.774144-0.79872 1.548288-1.544192 1.548288l-44.863488 44.86144-47.95392 48.728064c-8.4992 7.723008-8.4992 20.85888 0 28.61056l0.79872 1.54624 2.291712 1.544192 0.800768 0.772096 1.544192 1.54624c15.45216 15.45216 23.177216 36.337664 23.177216 56.45312 0 20.885504-7.725056 40.972288-23.177216 56.451072-8.523776 8.495104-17.795072 14.678016-27.865088 18.538496-10.817536 3.8912-22.407168 5.435392-33.24928 5.435392-11.587584-0.772096-20.885504 7.727104-21.633024 19.316736 0 0.772096 0 0.772096 0 1.54624l0 63.404032 0 68.839424c0 10.815488 9.271296 20.086784 20.887552 20.086784l1.544192 0 0 0 3.090432 0 2.289664 0c22.431744 0 42.5472 9.299968 57.225216 23.232512 13.934592 14.680064 23.230464 34.793472 23.230464 56.424448 0 12.388352-2.34496 23.20384-6.981632 33.247232-4.634624 10.070016-11.614208 19.341312-19.339264 27.066368-8.4992 6.979584-9.271296 20.115456-1.54624 28.612608 0 0.79872 0.800768 0.79872 1.54624 1.544192l44.863488 44.863488 47.95392 47.95392c8.4992 8.4992 20.885504 8.4992 29.35808 0l0.79872-0.79872 2.316288-2.291712 0-0.800768 1.54624-1.54624c15.478784-15.450112 36.337664-23.177216 56.451072-23.177216 20.885504 0 40.972288 7.725056 57.225216 23.177216 7.723008 8.525824 13.90592 17.79712 17.793024 27.867136 3.837952 10.815488 6.180864 22.403072 5.382144 33.247232-0.745472 11.587584 7.75168 20.887552 19.339264 21.633024 0.800768 0 1.54624 0 2.347008 0l62.631936 0 68.814848 0c11.589632 0 20.885504-9.271296 20.885504-20.887552l-0.770048-1.544192 0.770048 0-0.770048-3.090432 0-2.291712c0-22.429696 9.2672-42.545152 23.945216-57.223168 13.934592-13.934592 34.048-23.230464 56.451072-23.230464 11.618304 0 22.433792 2.34496 32.475136 6.981632 10.072064 4.634624 19.341312 11.587584 27.068416 19.339264 7.75168 8.4992 20.11136 9.271296 28.612608 1.54624C774.750208 735.1992319999999 775.524352 734.4005119999999 775.524352 733.652992L775.524352 733.652992zM791.773184 660.178944l-31.70304 31.70304c-7.723008-6.180864-16.248832-10.815488-25.520128-14.706688-14.680064-6.926336-31.700992-10.815488-48.728064-10.815488-33.245184 0-63.401984 13.907968-85.833728 35.592192l0 0c-18.542592 19.31264-31.70304 44.06272-34.793472 72.675328l-48.699392 0-44.091392 0c-1.542144-9.269248-3.86048-19.341312-6.950912-27.840512-6.207488-15.478784-15.480832-30.158848-27.840512-42.543104-23.20384-23.977984-54.908928-35.538944-85.837824-35.538944-26.294272 0-53.362688 9.269248-75.794432 27.039744l-34.019328-34.793472-31.70304-30.928896c6.180864-7.727104 10.815488-16.25088 14.706688-25.522176 6.924288-14.70464 10.815488-31.700992 10.815488-49.498112 0-33.247232-13.907968-63.40608-35.592192-85.037056l0 0c-19.314688-19.339264-44.06272-31.700992-72.675328-34.818048l0-48.726016 0-44.838912c9.269248-0.774144 19.341312-3.088384 27.840512-6.950912 15.478784-5.410816 30.158848-14.708736 42.543104-27.070464 23.977984-23.973888 35.538944-54.90688 35.538944-85.833728 0-27.068416-9.269248-53.364736-27.039744-75.79648l34.793472-34.789376 30.928896-30.932992c7.727104 5.40672 16.25088 10.815488 25.522176 14.680064 14.70464 6.979584 31.700992 10.842112 49.498112 10.842112 33.247232 0 63.404032-13.934592 85.037056-35.56352l0 0c19.339264-19.341312 31.700992-44.865536 34.818048-72.704l48.726016 0 44.838912 0c0.772096 9.269248 3.088384 18.567168 6.950912 27.838464 5.408768 15.478784 14.708736 30.158848 27.070464 42.522624 23.973888 23.201792 54.90688 35.588096 85.833728 35.588096 27.068416 0 53.364736-9.293824 75.79648-27.066368l34.789376 34.021376 30.932992 31.70304c-5.410816 7.723008-10.815488 16.248832-14.680064 25.520128-6.979584 14.680064-10.842112 31.700992-10.842112 48.728064 0 33.245184 13.934592 63.401984 35.56352 85.833728l0 0c19.341312 18.542592 44.865536 31.70304 72.704 34.793472l0 48.699392 0 44.091392c-9.269248 1.542144-18.567168 3.86048-27.838464 6.950912-15.478784 6.207488-30.158848 15.478784-42.545152 27.840512-23.177216 23.20384-35.56352 54.90688-35.56352 85.837824 0 26.294272 9.293824 53.362688 27.066368 75.792384L791.773184 660.178944zM164.64896 161.40902400000004L164.64896 161.40902400000004M291.459072 737.490944L291.459072 737.490944"  horiz-adv-x="1024" />

    
    <glyph glyph-name="add2" unicode="&#58912;" d="M950.92326962 328.21702202999995l-377.06160075 0 0-377.06160076-123.72333774 0 0 377.06160076-377.06160075 0 0 123.72333774 377.06160075 0 0 377.06160075 123.72333774 0 0-377.06160075 377.06160075 0 0-123.72333774z"  horiz-adv-x="1024" />

    
    <glyph glyph-name="Warning" unicode="&#59017;" d="M512-128C229.233778-128 0 101.23377800000003 0 384 0 666.766222 229.233778 896 512 896 794.766222 896 1024 666.766222 1024 384 1024 101.23377800000003 794.766222-128 512-128ZM512 839.111111C260.636444 839.111111 56.888889 635.363556 56.888889 384 56.888889 132.66488900000002 260.636444-71.11111100000005 512-71.11111100000005 763.335111-71.11111100000005 967.111111 132.66488900000002 967.111111 384 967.111111 635.363556 763.335111 839.111111 512 839.111111ZM483.555556 156.44444399999998L540.444444 156.44444399999998 540.444444 71.11111100000005 483.555556 71.11111100000005 483.555556 156.44444399999998ZM483.555556 696.8888890000001L540.444444 696.8888890000001 540.444444 213.33333300000004 483.555556 213.33333300000004 483.555556 696.8888890000001Z"  horiz-adv-x="1024" />

    
    <glyph glyph-name="shaixuan" unicode="&#58945;" d="M902.649 794.211c-6.89147 13.4848-21.6 22.0657-37.7965 22.0657L45.402 816.277c-16.3386 0-31.1891-8.76597-37.9979-22.4651-6.81346-13.6711-4.37542-29.7618 6.28138-41.1788l291.153-312.101 0-351.959c0-14.6177 8.9837-27.992 23.1986-34.5073l215.172-98.341c5.86455-2.69767 12.2554-3.99936 18.5903-3.99936 7.44334 0 14.8937 1.8291 21.5335 5.45822 12.1948 6.76455 19.8291 18.7778 20.2634 31.9006l14.7423 451.434 278.846 312.781C907.427 764.796 909.568 780.727 902.649 794.211ZM521.983 51.45500000000004l-133.557 61.0394L388.425 416.28l145.474 0L521.983 51.45500000000004ZM556.116 492.105c-2.23427 0.341139-4.27995 1.24113-6.60971 1.24113L365.819 493.346 136.464 739.21l639.917 0L556.116 492.105ZM709.353 370.33799999999996l311.06 0 0-67.9924-311.06 0 0 67.9924ZM709.353 222.317l311.06 0 0-67.9924-311.06 0 0 67.9924ZM709.353 86.33699999999999l311.06 0 0-67.9924-311.06 0 0 67.9924Z"  horiz-adv-x="1024" />

    
    <glyph glyph-name="users" unicode="&#58961;" d="M697.54089472 441.14248136c78.65162411 0 138.79794233 60.14515427 138.79794233 138.79794232S776.19368277 718.7383648800001 697.54089472 718.7383648800001s-138.79794233-60.14515427-138.79794233-138.79794234S618.88927175 441.14248136 697.54089472 441.14248136zM327.41382713 441.14248136c78.65162411 0 138.79794233 60.14515427 138.79794233 138.79794232S406.06661518 718.7383648800001 327.41382713 718.7383648800001s-138.79794233-60.14515427-138.79794233-138.79794234S248.76220302 441.14248136 327.41382713 441.14248136zM327.41382713 348.61129728000003c-106.41191026 0-323.86147555-55.51940949-323.86147556-161.9301558l0-115.66456377 647.7217883 0 0 115.66456377C651.27530269 293.09188779 433.82573739 348.61129728000003 327.41382713 348.61129728000003zM697.54089472 348.61129728000003c-13.8795611 0-27.75912221 0-46.26559203-4.62690872 55.51940949-37.01293966 92.53118521-92.53118521 92.5311852-157.30441216l0-115.66456378 277.59471958 0 0 115.66456378C1021.40237141 293.09188779 803.95280611 348.61129728000003 697.54089472 348.61129728000003z"  horiz-adv-x="1024" />

    
    <glyph glyph-name="file" unicode="&#58984;" d="M308.081585 432.454148c-16.865704 0-30.587462 13.721759-30.587462 30.587462s13.721759 30.587462 30.587462 30.587462L715.916416 493.629073c16.867703 0 30.589462-13.721759 30.589462-30.587462s-13.721759-30.587462-30.589462-30.587462L308.081585 432.454148zM308.081585 248.73137799999995c-16.865704 0-30.587462 13.719759-30.587462 30.587462s13.721759 30.587462 30.587462 30.587462L715.916416 309.906302c16.867703 0 30.589462-13.719759 30.589462-30.587462s-13.721759-30.587462-30.589462-30.587462L308.081585 248.73137799999995zM308.081585 65.01060700000005c-16.865704 0-30.587462 13.719759-30.587462 30.587462 0 16.865704 13.721759 30.585462 30.587462 30.585462L715.916416 126.18353200000001c16.867703 0 30.589462-13.719759 30.589462-30.585462 0-16.867703-13.721759-30.587462-30.589462-30.587462L308.081585 65.01060700000005zM222.41709-127.98199999999997c-70.836755 0-128.467742 57.628987-128.467742 128.467742L93.949349 767.212264c0 70.836755 57.630987 128.467742 128.467742 128.467742l438.728288 0 0.635989 0.079999c1.265978 0.157997 2.549955 0.239996 3.827933 0.239996 8.175856 0 15.851721-3.171944 21.61762-8.933843l232.889906-232.893906 0.139998-0.129998c6.26589-5.809898 9.737829-13.697759 9.791828-22.227609-0.024-0.279995-0.041999-0.877985-0.041999-0.877985l0-630.448918c0-70.838755-57.626987-128.467742-128.465742-128.467742L222.41709-127.98000000000002zM222.41709 834.505081c-37.105348 0-67.292817-30.187469-67.292817-67.292817l0-766.726522c0-37.107348 30.187469-67.292817 67.292817-67.292817l579.12382 0c37.105348 0 67.290817 30.187469 67.290817 67.292817L868.831728 601.025185 665.5953 601.025185c-16.863704 0-30.585462 13.721759-30.585462 30.587462L635.009838 834.505081 222.41709 834.505081zM696.184762 662.20011l129.391726 0-129.391726 129.389726L696.184762 662.20011z"  horiz-adv-x="1024" />

    
    <glyph glyph-name="forbidden" unicode="&#58928;" d="M874.203282 746.213133c-199.709256 199.709256-524.697308 199.709256-724.406564 0-199.728957-199.728957-199.728957-524.677607 0-724.406565 99.844777-99.844777 231.03388-149.806568 362.203282-149.806568s262.338804 49.94209 362.203282 149.806568c199.709256 199.728957 199.709256 524.697308 0 724.406565zM177.653963 718.355888c92.18108 92.18108 213.263559 138.281471 334.346037 138.281471a471.30754 471.30754 0 0 0 319.708179-125.042384l-667.273602-667.273602c-170.47294 185.248706-166.41453 474.4006 13.219386 654.034515z m668.692075-668.672374c-179.653616-179.653616-468.785809-183.712026-654.054216-13.219386L859.565423 703.718029c170.492641-185.248706 166.434231-474.4006-13.219385-654.034515z"  horiz-adv-x="1024" />

    
    <glyph glyph-name="code" unicode="&#59031;" d="M656 656V880H144v-992h736V656zM895.904 656.176a15.536 15.536 0 0 1-4.464 10.48L666.656 891.44a15.376 15.376 0 0 1-10.336 4.432L656 896H160a32 32 0 0 1-32-32v-960a32 32 0 0 1 32-32h704a32 32 0 0 1 32 32V656l-0.096 0.176zM672 841.904L841.904 672H672V841.904zM864-96H160V864h480v-224h224v-736zM458.336 284.128l-127.28 127.28a15.84 15.84 0 0 1-22.464 0 15.84 15.84 0 0 1 0-22.464L425.52 272l-116.928-116.944a15.84 15.84 0 0 1 0-22.464 15.84 15.84 0 0 1 22.464 0l127.28 127.28c0.336 0.288 0.752 0.384 1.072 0.704a15.888 15.888 0 0 1 4.64 11.424 15.84 15.84 0 0 1-4.64 11.424c-0.32 0.304-0.736 0.416-1.072 0.704zM704 160H512a16 16 0 1 1 0-32h192a16 16 0 1 1 0 32z"  horiz-adv-x="1024" />

    
    <glyph glyph-name="clears" unicode="&#58923;" d="M513.344 896a512 512 0 1 1 0-1024 512 512 0 0 1 0 1024z m226.048-674.624l-54.528-56.896-171.52 164.928-171.392-164.928-54.592 56.896L456.576 384 287.36 546.688l54.592 56.768 171.392-164.8 171.52 164.8 54.528-56.768L570.176 384l169.216-162.624z"  horiz-adv-x="1025" />

    
    <glyph glyph-name="biaoqian" unicode="&#59043;" d="M396.43136 604.27605333c0-64.78165333-52.84295111-117.62346667-117.62346667-117.62346666s-117.62460445 52.84181333-117.62460444 117.62346666 52.84295111 117.62346667 117.62346666 117.62346667 117.62346667-52.84181333 117.62346667-117.62346667z m-78.48163555 0c0 21.72359111-17.61393778 39.14296889-39.1429689 39.14296889s-39.14296889-17.61507555-39.14296888-39.14296889c0-21.52903111 17.61507555-39.14296889 39.14296888-39.14296888 21.52903111-0.19569778 39.14296889 17.41937778 39.1429689 39.14296888zM630.50524445 757.51992889l355.41560888-360.89628444c22.70321778-22.11612445 35.81610667-53.82144 35.81610667-87.28803556 0-33.27203555-12.91719111-64.78165333-35.42471111-86.50524444L663.97297778-91.09617777999995c-44.62364445-43.25262222-129.56216889-43.44832-174.38151111 0.19569778L88.96398222 300.91946667c-69.08586667 67.12888889-86.70094222 93.94289778-86.70094222 184.94919111V658.29319111c0 162.63850667 33.0752 235.24693333 228.98574222 235.24693334h161.65888c99.42357333 0.19683555 157.35466667-56.95146667 237.59758223-136.02133334z m-21.13763556-792.24945778l322.34040889 313.72856889c7.43765333 7.24195555 11.54844445 18.20216889 11.54844444 30.33656889 0 12.33009778-4.30648889 23.68056889-12.72263111 31.70531556l-322.53724444 328.60387555-32.68266667 31.90101333c-79.85152 78.87303111-118.016 113.70951111-182.60195555 113.70951112H231.05308445c-140.32668445 0-150.50524445-21.72359111-150.50524445-156.76643556v-172.42453334c0-62.04074667 1.76241778-69.4784 63.02151111-128.77937777l400.62520889-392.01450667c7.82791111-7.63335111 19.57205333-11.93870222 32.48924445-11.93870222 12.91719111 0 24.85475555 4.30535111 32.68380444 11.93870222z"  horiz-adv-x="1024" />

    
    <glyph glyph-name="download" unicode="&#58915;" d="M867.65695916 650.71765672h-116.4419254c-21.43544813 0-38.81231853-17.3768704-38.81231854-38.81231854 0-21.43544813 17.3768704-38.81231853 38.81231854-38.81231853h77.93760058c21.26282145 0 38.49935621-17.23653476 38.49935622-38.49935621v-543.99714858c0-21.26282145-17.23653476-38.49935621-38.49935622-38.49935622H207.5308487c-21.26282145 0-38.49935621 17.23653476-38.49935621 38.49935622V534.59490498c0 21.26282145 17.23653476 38.49935621 38.49935621 38.49935622h77.93760059c21.43544813 0 38.81231853 17.3768704 38.81231853 38.81231853 0 21.43544813-17.3768704 38.81231853-38.81231853 38.81231974H169.0265251c-42.86841196 0-77.61966967-34.75125772-77.61967088-77.61967088V-47.90656720000004c0-42.86841196 34.75125772-77.61966967 77.61967088-77.61966967h698.63043406c42.86841196 0 77.61966967 34.75125772 77.61966967 77.61966967V573.09798704c0 42.86841196-34.75125772 77.61966967-77.61966967 77.61966968zM312.82162103 406.56840053c-15.03461983 15.03461983-39.41092193 15.03461983-54.4467833 0l-0.44212162-0.44212164c-15.03461983-15.03461983-15.03461983-39.41092193 0-54.44678329l230.81606014-230.81606138c7.06152706-8.26866862 17.55570601-13.51700025 29.28062434-13.51700024h0.62592463c11.72615866 0 22.21909606 5.24833163 29.28062312 13.51700024L778.7520097 351.6794956c15.03461983 15.03461983 15.03461983 39.41092193 0 54.44678329l-0.44212163 0.44212164c-15.03461983 15.03461983-39.41092193 15.03461983-54.4467833 0L557.15468143 239.85997719V845.0922141c0 21.26282145-17.23653476 38.49935621-38.49935621 38.49935623h-0.62592463c-21.26282145 0-38.49935621-17.23653476-38.49935743-38.49935623v-605.23223691L312.82162103 406.56840053z"  horiz-adv-x="1024" />

    
    <glyph glyph-name="add1" unicode="&#59001;" d="M470.1050336 834.2825696c-6.55352533 0-12.11922027 5.01993067-12.63878613 11.677152-0.57086827 7.02288213 4.6291648 13.15835307 11.6236672 13.7314048a488.97226773 488.97226773 0 0 0 39.08538453 1.5608832 12.6737152 12.6737152 0 0 0 12.692272-12.69117973c0-7.046896-5.6682976-12.74248213-12.692272-12.74248213a461.61751893 461.61751893 0 0 1-37.03113173-1.50958187c-0.3623872 0.0010912-0.70294293-0.02619627-1.03913387-0.02619627zM546.24883947-97.41616639999995c-6.55352533 0-12.12031147 5.046128-12.6387872 11.70444054-0.57086827 7.02288213 4.62807253 13.16053653 11.6236672 13.73140373 24.91191147 1.9996768 49.77470507 6.1376544 73.93346347 12.2229152 6.78711253 1.71369707 13.70520853-2.39371733 15.421088-9.20702613 1.71478827-6.81549227-2.41882347-13.732496-9.2081184-15.44946774a476.68167787 476.68167787 0 0 0-78.09436374-12.9487808c-0.36020373-0.02728853-0.69966827-0.0534848-1.03694933-0.0534848z m-77.0279424 0.1069696c-0.3634784 0-0.70403413 0-1.06751253 0.02510507-26.31561493 2.18414507-52.5832032 6.5775392-78.0670752 13.08085547-6.78820373 1.71587947-10.8967104 8.66017173-9.18082987 15.4440096 1.71478827 6.8122176 8.63397547 10.9501952 15.44728427 9.2081184a453.9637344 453.9637344 0 0 1 73.9072672-12.38009494c6.96939733-0.56868587 12.1694304-6.70852267 11.59746986-13.72922133-0.54357973-6.65722133-6.10927467-11.64877227-12.63660373-11.64877227z m225.98748693 37.55178987a12.78177707 12.78177707 0 0 0-11.65204586 7.591568c-2.80740693 6.4498304 0.1058784 13.93988587 6.52732906 16.77458133 22.80635733 10.0616928 44.98836053 22.07830827 65.92384107 35.81080427 5.87896213 3.84763093 13.7303136 2.18414507 17.58012693-3.69481707 3.82143467-5.87787093 2.18414507-13.78161493-3.69372586-17.62815466-22.08049173-14.4594528-45.4839136-27.1757376-69.59137067-37.76245547-1.66130347-0.73023147-3.40447147-1.0915264-5.09415467-1.0915264z m-374.84333653 0.361296c-1.71587947 0-3.45795627 0.31326827-5.1225344 1.06751253a479.63425707 479.63425707 0 0 0-69.48658453 37.89234667c-5.87677973 3.84653973-7.48787307 11.7524672-3.64133227 17.62924587 3.8498144 5.8505824 11.70334827 7.48896427 17.580128 3.64133333a455.60757333 455.60757333 0 0 1 65.82014613-35.88502933c6.3963456-2.83687787 9.30963093-10.3509472 6.47493547-16.77458134-2.08045013-4.76123947-6.7358112-7.5708288-11.6247584-7.57082773zM823.78039574 24.44732266999995c-3.4339424 0-6.8657024 1.40479467-9.36202454 4.1085056-4.73395093 5.20112427-4.3944864 13.23585173 0.75315414 17.99490773 18.38567467 16.90228907 35.49753707 35.49753707 50.84003413 55.18431147 4.31698773 5.5394976 12.30041387 6.502224 17.83882027 2.18741867 5.51548373-4.3191712 6.5033152-12.3287936 2.18632746-17.84100267a480.247696 480.247696 0 0 0-53.6758208-58.252592 12.5776608 12.5776608 0 0 0-8.58049066-3.3815488z m-631.77778667 0.5457632a12.69008853 12.69008853 0 0 0-8.60777813 3.35426133 486.08081387 486.08081387 0 0 0-53.57103467 58.3584704c-4.31698773 5.56569387-3.32915627 13.52292267 2.21034133 17.837728 5.5394976 4.31807893 13.52292267 3.33024747 17.81371414-2.2103424 15.34358933-19.71187947 32.4030592-38.3060352 50.76253653-55.26180906 5.14873067-4.78306987 5.4860128-12.81779733 0.728048-17.99490774a12.70100373 12.70100373 0 0 0-9.3358272-4.08340053z m726.30726507 120.69118827c-2.05534507 0-4.13470293 0.49446187-6.05906347 1.56197546-6.16385067 3.35317013-8.45169067 11.07681173-5.0985216 17.2417536 11.93693547 21.97461333 22.12961067 45.06804267 30.2440192 68.62864427 2.2900224 6.65831253 9.54540053 10.19376747 16.15022827 7.90592747 6.631024-2.31403627 10.16757013-9.5715968 7.8513504-16.17533334a477.99041813 477.99041813 0 0 0-31.9337024-72.50465493c-2.28674773-4.2656864-6.65503787-6.65831253-11.1543104-6.65831253z m-820.65555094 0.72804906c-4.5243776 0-8.89266773 2.39262613-11.18159786 6.65940374a478.6453344 478.6453344 0 0 0-31.83109974 72.60834986c-2.2889312 6.65940373 1.2497984 13.88749333 7.8808224 16.17424107s13.8602048-1.24870613 16.12293974-7.9048352a456.1227744 456.1227744 0 0 1 30.16652053-68.75853547c3.32915627-6.19004693 1.04022507-13.88749333-5.1225344-17.24175466a12.69008853 12.69008853 0 0 0-6.03505067-1.53686934z m870.76753814 144.6414656a14.42998187 14.42998187 0 0 0-2.1077376 0.15717974c-6.91700373 1.17120853-11.59746987 7.75093013-10.42844587 14.66793493a460.3164192 460.3164192 0 0 1 6.2140608 74.8186912c0 7.02179093 5.69558613 12.7151936 12.692272 12.7151936h0.02401387c7.02288213 0 12.69008853-5.7206912 12.69008746-12.74248213-0.02510507-26.47279467-2.2365376-53.05037653-6.57644693-79.00360427-1.03913387-6.1911392-6.42254293-10.61291307-12.50780373-10.61291307z m-920.64593814 0.88522774a12.68899733 12.68899733 0 0 0-12.50889493 10.66421546c-4.26350293 25.79714027-6.42254293 52.2186336-6.42254187 78.58773227v0.36457067c0 7.0479872 5.69558613 12.74248213 12.69008854 12.74248106 7.02069867 0 12.7162848-5.69558613 12.7162848-12.74248106v-0.36457067c0-24.96539627 2.02696533-50.03557973 6.06015573-74.45302933 1.14392-6.94320107-3.53654613-13.4978176-10.45464213-14.6406464-0.70185173-0.1069696-1.3785984-0.15827093-2.08045014-0.158272z m920.77582934 152.96544853c-6.11254933 0-11.49377493 4.42068267-12.50889494 10.63474347a454.12964693 454.12964693 0 0 1-18.33437226 72.79063466c-2.2889312 6.65722133 1.24870613 13.88749333 7.87973013 16.17642454 6.63320747 2.28784 13.8591136-1.2497984 16.12293973-7.90592747a477.40536 477.40536 0 0 0 19.37350614-76.9264288c1.14392-6.91700373-3.53545493-13.46943787-10.45354987-14.61445013-0.70076053-0.10151147-1.40479467-0.15499627-2.07935893-0.15499627z m-920.6197408 0.88413653c-0.67674667 0-1.3807808 0.05130133-2.1077376 0.15499627-6.91700373 1.14610347-11.5723648 7.6996288-10.4284448 14.64282987a478.17270293 478.17270293 0 0 0 19.50448853 76.84565653c2.28784 6.65831253 9.518112 10.19376747 16.149136 7.90592747 6.631024-2.2900224 10.1686624-9.5715968 7.8797312-16.17642454-8.1395136-23.611904-14.3524832-48.11012693-18.4882784-72.762256-1.01402773-6.24244053-6.39743787-10.61073067-12.50889493-10.6107296z m870.81993066 144.6425568c-4.5254688 0-8.89375893 2.4177312-11.18159786 6.65722134a460.25965973 460.25965973 0 0 1-41.04030934 62.87957333c-4.31589653 5.51220907-3.32915627 13.52401493 2.21034134 17.84100267 5.5405888 4.31589653 13.52401493 3.33024747 17.81371413-2.23653867a479.65281387 479.65281387 0 0 0 43.32487467-66.36700053c3.35317013-6.16275947 1.06751253-13.88749333-5.0985216-17.2155584-1.91999573-1.03913387-4.00153707-1.55869973-6.02850134-1.55869974z m-820.73304853 0.7793504c-2.0542528 0-4.13470293 0.470448-6.05906453 1.53468587-6.16385067 3.35535253-8.45278187 11.077904-5.09742934 17.24175467a483.7252992 483.7252992 0 0 0 43.45585707 66.28731946 12.682448 12.682448 0 0 0 17.83991147 2.18414507 12.7599456 12.7599456 0 0 0 2.18632746-17.86501653 456.98071467 456.98071467 0 0 1-41.16801706-62.78024427c-2.2900224-4.21001813-6.65940373-6.60264427-11.15758507-6.60264427z m726.3574752 120.6660832c-3.09338667 0-6.16275947 1.0915264-8.6088704 3.38264107a462.474368 462.474368 0 0 1-59.084336 46.23488427c-5.87677973 3.8487232-7.48896427 11.72954453-3.64024107 17.60523306 3.8487232 5.85167467 11.70334827 7.517344 17.57903574 3.64242454a484.5897888 484.5897888 0 0 0 62.36109866-48.81306987c5.14873067-4.7579648 5.487104-12.79487467 0.728048-17.96871147-2.49413867-2.73209067-5.92698987-4.08340053-9.33473493-4.0834016z m-631.7756032 0.57196054a12.68899733 12.68899733 0 0 0-9.36202347 4.1085056c-4.73176747 5.174928-4.3944864 13.21183787 0.75315307 17.97089493a488.6982944 488.6982944 0 0 0 62.46697707 48.70719147c5.87677973 3.8498144 13.75650987 2.18523627 17.57794453-3.6915424 3.8498144-5.87787093 2.21034133-13.75760107-3.6653472-17.60632427-20.88199573-13.65390613-40.77616-29.20270293-59.1629248-46.1333728-2.44501973-2.26382613-5.5394976-3.35535253-8.6077792-3.35535253zM695.96262934 796.28980267c-1.71587947 0-3.45904747 0.3645696-5.1214432 1.0915264a452.53601813 452.53601813 0 0 1-70.8378944 24.498224c-6.78820373 1.71478827-10.89561813 8.63397547-9.18082987 15.44619307 1.7442592 6.8133088 8.63397547 10.92290667 15.44728427 9.2070272a475.11752 475.11752 0 0 0 74.84161386-25.9008352c6.39743787-2.80958933 9.31072213-10.32474987 6.47711894-16.748384-2.08263253-4.78525227-6.7369024-7.5937504-11.6258496-7.59375147z m-374.790944 0.36457067c-4.8889472 0-9.54321707 2.80740693-11.62366614 7.5937504-2.8346944 6.4487392 0.10369493 13.93879467 6.52732907 16.748384a473.3077696 473.3077696 0 0 0 74.8940064 25.74583786c6.78711253 1.71478827 13.70629973-2.39262613 15.421088-9.2081184 1.6907744-6.8122176-2.4177312-13.7314048-9.23104-15.44728426-24.1598496-6.13547093-48.03262827-14.30336427-70.890288-24.36614827-1.66457813-0.75533653-3.38154987-1.06642133-5.09742933-1.06642133zM546.24883947 834.2825696c-0.33946453 0-0.70294293 0.02510507-1.04131733 0.02510507a462.59989333 462.59989333 0 0 1-37.03222294 1.50958187c-7.02069867 0-12.68899733 5.69558613-12.68899626 12.74248106a12.672624 12.672624 0 0 0 12.68899626 12.69117974c13.03064427 0 26.16280107-0.52065813 39.087568-1.5619744 6.9955936-0.57086827 12.19890133-6.70852267 11.6247584-13.73031254a12.68790507 12.68790507 0 0 0-12.63878613-11.6760608zM684.1817824 414.84273067H541.43629867V557.56092587c0 13.57422507-19.24361387 24.62702293-32.81674773 24.627024-13.57531627 0-32.79273387-11.05170667-32.79273387-24.627024v-142.7181952H332.17209067c-13.57531627 0-24.60082667-19.24688853-24.60082667-32.8200224 0-13.6255264 11.0266016-32.87132373 24.60082667-32.87132373h143.62852907v-144.22559467c0-13.57531627 19.2174176-24.65322027 32.79164266-24.65322027 13.57531627 0 32.81893013 11.077904 32.8189312 24.65322027V349.15029227H684.15231147c13.57640747 0 24.60191787 19.24579733 24.60191787 32.8713248 0.02947093 13.57422507-10.9709344 32.8211136-24.57244694 32.8211136"  horiz-adv-x="1024" />

    
    <glyph glyph-name="target1" unicode="&#59609;" d="M460.21846873 901.81530905v-107.18776889A414.35581038 414.35581038 0 0 1 101.37245984 435.78153127H-5.81530905v-103.56306254h107.18776889A414.35581038 414.35581038 0 0 1 460.21846873-26.627540159999967V-133.81530905h103.56306254v107.18776889A414.35581038 414.35581038 0 0 1 922.62754016 332.21846873000004H1029.81530905v103.56306254h-107.18776889A414.35581038 414.35581038 0 0 1 563.78153127 794.62754016V901.81530905m-103.56306254-211.26864594V591.12612386h103.56306254V690.02884741c129.45382756-21.23042725 233.01688889-124.79348978 254.76513184-254.24731614H719.12612386v-103.56306254h98.90272355c-21.23042725-129.45382756-124.79348978-233.01688889-254.24731614-254.76513184V176.87387614h-103.56306254v-98.90272355C330.76464238 99.20157984000002 227.20157984 202.76464238000005 205.45333689 332.21846873000004H304.87387614v103.56306254H205.97115259C227.20157984 565.2353576200001 330.76464238 668.79842016 460.21846873 690.54666311M512 435.78153127a51.78153127 51.78153127 0 0 1-51.78153127-51.78153127 51.78153127 51.78153127 0 0 1 51.78153127-51.78153127 51.78153127 51.78153127 0 0 1 51.78153127 51.78153127 51.78153127 51.78153127 0 0 1-51.78153127 51.78153127z"  horiz-adv-x="1024" />

    
    <glyph glyph-name="jixiao" unicode="&#58995;" d="M873.536 841.344h-723.2c-52.736 0-95.68-42.944-95.68-95.68V22.4c0-52.736 42.944-95.744 95.68-95.744h723.2a96 96 0 0 1 95.808 95.744V745.664c0 52.736-42.944 95.68-95.808 95.68z m35.904-818.944c0-19.84-16-35.84-35.904-35.84h-723.2a35.84 35.84 0 0 0-35.84 35.84V745.664c0 19.712 16.064 35.84 35.84 35.84h723.2a35.84 35.84 0 0 0 35.904-35.84V22.4zM807.936 163.584H216.128a30.08 30.08 0 0 1 0-59.968h591.808a29.952 29.952 0 0 1 0 59.968zM836.544 641.984c-0.192 0.896-0.512 2.688-1.344 4.48a20.352 20.352 0 0 1-2.752 4.48c-1.856 3.008-2.752 4.096-3.136 4.096l-1.344 1.408a17.216 17.216 0 0 1-4.032 2.816c-1.28 0.768-3.008 1.984-5.44 2.944a22.144 22.144 0 0 1-5.632 1.344c-0.768 0.192-2.688 0.768-5.056 0.768H630.336a30.016 30.016 0 1 1 0-59.904h110.336l-201.024-223.36-177.536 164.48-168.256-187.008a30.016 30.016 0 0 1 22.272-49.984 29.952 29.952 0 0 1 22.208 9.92l127.616 141.76 177.536-164.416 234.432 260.48V437.12a30.016 30.016 0 0 1 59.904 0l-0.064 198.016c0 2.56-0.64 4.672-1.216 6.848z"  horiz-adv-x="1024" />

    
    <glyph glyph-name="bianji1" unicode="&#58905;" d="M313.0622626 332.69624007000004c-0.59928491-0.74703489-1.35322402-1.65286646-1.50235479-2.70506717l-49.49347763-181.43281828a31.12967551 31.12967551 0 0 1 7.81970159-29.9449141c5.86995434-5.71253849 13.54052511-8.87052146 21.81590417-8.87052143 2.70368634 0 5.41427687 0.29964246 8.12486739 1.04943902l180.0740709 49.04746605c0.303785 0 0.45429663-0.30240414 0.60342744-0.30240416 2.10163973 0 4.06105286 0.74703489 5.56340767 2.26043643l481.56133285 481.41082121c14.29446419 14.28894085 22.11830831 33.84302773 22.1183083 55.06378947 0 24.06667471-10.2320305 48.1361111-28.13187011 65.88820073l-45.43518643 45.58569809c-17.89983959 17.90122046-41.97065681 28.13048922-65.88958157 28.13048925-21.21109589 0-40.77484866-7.82246326-55.06378949-22.11554664L313.8162017 334.20273740000005c-0.45567747-0.303785-0.29964246-1.05081987-0.75393908-1.50649733z m607.48020751 357.89737123L872.70323982 642.75576183l-77.47759776 78.83496427 47.09219542 47.08943376c7.51867828 7.51591661 21.96089245 6.46647757 30.38678316-2.26043645l45.58431725-45.58707892c4.81084942-4.80946859 7.52143996-10.97906538 7.52143997-17.29365046 0-4.96688445-1.80752063-9.6368881-5.26790775-12.94538273zM398.66334691 325.02290760999995l347.5148291 347.5217333 77.6322519-78.83496427-346.91554417-346.76917504-78.23153683 78.08240601m-63.18313352-140.81400461l25.12301794 92.22497773 66.94178225-66.94868647-92.06480019-25.27629126M951.07976493 499.83873665c-18.20224373 0-33.24512364-14.89374911-33.24512367-33.24926618v-448.91687494c0-23.47153232-19.10807532-42.72045339-42.7273576-42.72045339H115.83400619c-23.46738978 0-42.72735759 19.09979026-42.72735759 42.72045339V750.32188111c0 23.61652059 19.25996782 42.72735759 42.72735759 42.72735759h489.08415364c18.35275538 0 33.24512364 14.89236827 33.24512365 33.24512366 0 18.35551707-14.89236827 33.24926618-33.24512365 33.24926615H110.72213345c-57.3200834 0-104.1098747-46.63513712-104.10987469-104.10987469v-742.72528104c0-57.61282165 46.63375627-104.25348215 104.10987469-104.25348216H880.22882228c57.46369085 0 104.10020882 46.64066048 104.10020881 104.1029705v454.18616352c-0.14636914 18.20086287-15.03873741 33.094612-33.24926616 33.09461201z"  horiz-adv-x="1024" />

    
    <glyph glyph-name="select" unicode="&#58908;" d="M898.44622222 489.70410667V34.47466667000003c0-34.95367111-23.30168889-58.25536-58.25308444-58.25536H141.14133334c-34.95253333 0-58.25422222 23.30168889-58.25422222 58.25536V733.52533333c0 34.95253333 23.30168889 58.25422222 58.25422222 58.25422222h631.78296888v58.25422223H141.14133334c-64.07964445 0-116.50844445-52.4288-116.50844445-116.50844445v-699.04952888c0-64.07964445 52.4288-116.50844445 116.50844445-116.50844445h699.05180444c64.07964445 0 116.50616889 52.4288 116.50616889 116.50844445V489.70410667H898.44622222zM454.48533334 125.63114667000002a34.13333333 34.13333333 0 0 0-24.13568 9.99765333L203.48359112 362.49713778c-13.33020445 13.33020445-13.32906667 34.94229333 0 48.27249777 13.32906667 13.32906667 34.94229333 13.33020445 48.27136 0L454.48533334 208.03697778000003l495.35317333 495.35431111c13.32906667 13.33020445 34.94229333 13.33020445 48.27136 0 13.33020445-13.33020445 13.33020445-34.94229333 0-48.27249778L478.62215112 135.62879999999996a34.13674667 34.13674667 0 0 0-24.13681778-9.99765333z"  horiz-adv-x="1024" />

    
    <glyph glyph-name="ku" unicode="&#58902;" d="M938.0992 813.46453333H79.872c-34.2688 0-62.1344-27.95413333-62.1344-62.33493333v-592.4544c0-34.34666667 27.89866667-62.33386667 62.1344-62.33386667h46.67413333c2.83306667-8.75733333 8.02133333-17.41226667 15.7952-25.51146667a15.22133333 15.22133333 0 0 1 6.9824-4.11733333c77.8304-20.224 97.152-45.37813333 101.73546667-58.5408 5.08693333-14.6144-3.33546667-26.35093333-3.86986667-27.06453333-5.008-6.49173333-3.87093333-15.77173333 2.4992-20.848 6.45866667-5.1648 15.78453333-4.096 20.93866667 2.40853333 7.05066667 8.95893333 16.8448 30.49813333 8.8128 54.62826667-11.05493333 33.04106667-50.85546667 59.0336-118.29013333 77.1936-5.6 6.6816-7.296 12.18133333-7.296 16.66773333v0.07573333c0.0224 5.9808 3.78133333 11.99146667 10.53013333 17.17866667 0.224 0.14506667 0.45653333 0.30293333 0.63573333 0.45866667a51.04213333 51.04213333 0 0 0 6.4928 4.06186666 24.21226667 24.21226667 0 0 0 1.696 0.85653334c2.84373333 1.43893333 6.1344 2.54293333 9.38026667 3.7152 5.17653333 1.25013333 14.5248 2.92266667 29.38346667 2.92266666 26.04693333 0 56.4448-5.14133333 90.29013333-15.1488 5.66613333-2.47786667 11.3216-5.04106667 17.03253333-8.0992 1.72906667-0.9248 3.44746667-1.9072 5.1872-2.92266666 7.17226667-4.03733333 14.34666667-8.45546667 21.5744-13.44106667 0.624-0.44586667 1.22666667-0.7488 1.85066667-1.19466667 113.83893333-80.1952 101.13386667-120.66453333 101.22346667-120.66453333-3.83786667-7.28533333-1.07093333-16.34346667 6.19093333-20.20373333a14.86826667 14.86826667 0 0 1 6.93866667-1.72906667c5.36533333 0 10.51946667 2.90133333 13.152 7.9776 4.6848 8.88 20.25813333 53.61066667-74.1824 131.3632h263.41866666c-94.46293333-77.77386667-78.93333333-122.51733333-74.24853333-131.3632 2.7456-5.1648 8.12053333-8.26666667 13.65546667-8.26666667a14.048 14.048 0 0 1 6.66986666 1.67253334c7.27253333 3.84746667 10.24 12.4832 6.41386667 19.7664-0.15573333 0.3904-13.52106667 40.86293333 100.89813333 121.44746666 7.9648 5.62133333 15.89653333 10.464 23.80693334 14.88106667 1.4272 0.8032 2.88746667 1.64266667 4.3168 2.41066667 5.95626667 3.168 11.824 5.856 17.71413333 8.43306666 33.73333333 9.94026667 64.07573333 15.08266667 90.06933333 15.08266667 14.88 0 24.19413333-1.70666667 29.31413334-2.90133333 3.28-1.16053333 6.63786667-2.2976 9.472-3.7696 0.5568-0.26773333 1.0688-0.5344 1.6064-0.76906667 2.49813333-1.34933333 4.8512-2.7776 6.848-4.33066667l0.26666666-0.18773333c6.81706667-5.18826667 10.56533333-11.22133333 10.5984-17.22453333 0-0.08746667 0.05653333-0.1568 0.05653334-0.24533334-0.05653333-4.41813333-1.808-9.8848-7.31733334-16.50986666-67.46666667-18.16-107.23626667-44.15146667-118.27946666-77.19466667-8.07573333-24.128 1.75146667-45.66826667 8.81173333-54.6272a14.77973333 14.77973333 0 0 1 20.896-2.40853333c6.45866667 5.0976 7.52853333 14.4896 2.40853333 20.96-0.0896 0.112-8.84586667 11.824-3.904 26.58346666 4.40533333 13.26186667 23.56053333 38.5632 101.85813334 58.93333334a14.69546667 14.69546667 0 0 1 6.99413333 4.128c7.79733333 8.11946667 13.00693333 16.84373333 15.80586667 25.6544 33.61066667 0.73813333 60.7296 28.29013333 60.7296 62.18133333V751.1296c0.10133333 34.3808-27.77493333 62.336-62.01066667 62.336zM305.06133333 243.17866665999998c18.37333333-47.5776 7.06133333-74.67413333-0.65813333-86.19733333 0 0.02133333-0.02133333 0.02133333-0.05546667 0.02133333-1.32693333 0.5376-2.6432 1.0176-3.95946666 1.51893334-17.77066667 6.7264-34.91626667 10.9664-51.14666667 13.18613333-1.39413333 0.16533333-2.8 0.37973333-4.20586667 0.55893333-7.60853333 0.86933333-14.99306667 1.33653333-22.144 1.38133334-1.6064 0-3.15733333-0.08746667-4.76373333-0.15573334-5.91253333-0.14506667-11.66826667-0.56853333-17.15626667-1.25013333-1.45066667-0.1792-2.944-0.31146667-4.37333333-0.51413333-1.15946667-0.17706667-2.2304-0.4672-3.36746667-0.65706667 5.19786667 24.7296 8.69973333 61.28533333-7.51893333 85.74933333-17.38026667 26.35093333-21.44 107.47093333-0.3008 168.73493334 9.08053333 26.40426667-1.87413333 74.06933333-9.61706667 101.31093333h132.49066667c5.6-19.744 15.1488-69.92106667-7.27253333-133.27146667l-1.6064-4.41706666c-10.864-30.31893333-24.38506667-68.04693333 5.65546666-145.99893334z m575.25333334 13.67466667c-16.25386667-24.496-12.7392-61.0176-7.56266667-85.7824-1.16053333 0.23466667-2.23146667 0.50133333-3.4144 0.65706667-0.96 0.14506667-1.9744 0.20266667-2.9888 0.3584-6.15786667 0.83626667-12.65066667 1.2832-19.37706667 1.42933333a52.58133333 52.58133333 0 0 1-2.656 0.0864c-24.87466667 0.12373333-53.04213333-4.8288-82.704-16.6208-7.74293333 11.46773333-19.05386667 38.57493333-0.68053333 86.19733333 30.06293333 78.00746667 16.4864 115.73546667 5.6 146.0768l-1.55093333 4.34133334c-22.4224 63.37066667-12.8288 113.52533333-7.24053334 133.2704h132.49173334c-7.776-27.2416-18.7296-74.90666667-9.616-101.312 21.07306667-61.32053333 17.056-142.47466667-0.3008-168.7008z m59.06666666-130.5952c-1.99573333 5.74613333-5.15413333 11.312-9.56053333 16.4672-0.624 0.6912-1.37173333 1.33866667-1.98506667 2.00853333-0.24533333 0.26666667-0.51306667 0.4672-0.72533333 0.71146667-2.19733333 2.27626667-4.67306667 4.4192-7.38453333 6.48213333a60.88853333 60.88853333 0 0 1-2.61013334 1.94026667 77.41866667 77.41866667 0 0 1-6.816 4.23786667c-1.01546667 0.59306667-1.8752 1.28426667-2.9568 1.8528-0.3232 0.1792-0.736 0.26773333-1.07093333 0.4448-0.0224 0.03413333-0.05546667 0.03413333-0.08746667 0.05546666-5.65653333 19.12213333-14.05653333 60.352-1.03893333 79.87413334 24.7648 37.48053333 26.4608 128.58453333 3.62666667 195.01546666-6.15893333 17.89333333 3.424 61.88906667 12.5376 91.5616h5.83466666c8.2208 0 14.88 6.68266667 14.88 14.92586667 0 8.23146667-6.6592 14.9248-14.88 14.9248H734.20373333c-8.2208 0-14.8928-6.69333333-14.8928-14.9248 0-5.80053333 3.35786667-10.66666667 8.15573334-13.14133333-6.69333333-26.61653333-13.87733333-79.15733333 9.4368-145.04106667l1.6064-4.51733333c9.7056-26.9728 20.69333333-57.5488-5.35466667-125.1168-21.13813333-54.7488-10.06186667-90.4352 1.19466667-109.5552-9.9168-5.26613333-19.94453333-11.30133333-30.01813334-18.16213334l-0.02346666-0.0448H361.89866667c-0.94933333 0.6688-1.89546667 1.1168-2.8896 1.7632a301.97866667 301.97866667 0 0 1-24.38506667 14.82453334c-0.97066667 0.5248-1.96266667 1.19466667-2.9792 1.72906666 11.2672 19.1424 22.3104 54.8064 1.19466667 109.46666667-26.048 67.44426667-15.072 97.99786667-5.4112 125.0048l1.6288 4.56533333c23.31413333 65.90293333 16.1408 118.4 9.4368 145.01653334 4.8192 2.48746667 8.18773333 7.3504 8.18773333 13.152 0 8.24213333-6.66986667 14.9248-14.88 14.9248h-192.91733333c-8.22186667 0-14.88106667-6.68266667-14.88106667-14.92586667s6.6592-14.9376 14.88-14.9376h5.82293333c9.0912-29.6608 18.69546667-73.66933333 12.5504-91.5616-22.49066667-65.1904-20.76053333-158.112 3.62453334-195.0048 12.896-19.44426667 4.55146667-60.7616-1.07093334-79.872-0.35733333-0.21013333-0.8256-0.32213333-1.18186666-0.512-1.20533333-0.6144-2.15253333-1.3728-3.2576-1.9968-2.2304-1.29493333-4.37333333-2.56533333-6.37013334-3.97226667-0.97066667-0.6912-1.9296-1.4048-2.88746666-2.1184-2.5888-2.00853333-4.976-4.10666667-7.11786667-6.30186666-0.2912-0.30186667-0.62506667-0.59306667-0.9152-0.90346667-0.624-0.62506667-1.37173333-1.25013333-1.94133333-1.8976-1.80693333-2.12906667-3.23413333-4.37333333-4.66133334-6.58133333a0.77866667 0.77866667 0 0 0-0.1568-0.21013334c-1.96373333-3.15733333-3.63733333-6.41493333-4.79786666-9.73866666H79.85066667c-17.87093333 0-32.37333333 14.5568-32.37333334 32.4736V751.1296c0 17.89333333 14.5312 32.46293333 32.37333334 32.46293333h858.22826666c17.82506667 0 32.3264-14.5696 32.3264-32.46293333v-592.4544h0.0224c0-17.4688-13.8112-31.7248-31.04533333-32.41813334zM477.46666667 596.4288c0 8.256-6.67093333 14.94826667-14.88106667 14.94826666-50.46613333 0-93.2352 31.3024-113.81653333 46.34986667-4.7296 3.4688-8.45653333 6.14613333-11.01013334 7.67466667a14.82133333 14.82133333 0 0 1-20.39253333-5.232c-4.20586667-7.072-1.8848-16.24213333 5.17653333-20.45866667 1.99573333-1.22666667 4.9408-3.3696 8.68906667-6.15786667 23.10293333-16.90026667 71.1808-52.0832 131.35253333-52.0832 8.21013333 0.03413333 14.88213333 6.7264 14.88213334 14.95893334z m213.32053333 68.9728c-2.53226667-1.52853333-6.28053333-4.20586667-11.0432-7.67466667-20.5472-15.02613333-63.328-46.32746667-113.79413333-46.32746667-8.21013333 0-14.88213333-6.69333333-14.88213334-14.9376s6.67093333-14.9376 14.88213334-14.9376c60.17066667 0 108.2496 35.1616 131.35253333 52.0736 3.75893333 2.74346667 6.70506667 4.9536 8.7232 6.14613334 7.06133333 4.20586667 9.38133333 13.376 5.1872 20.45866666-4.23893333 7.1072-13.37493333 9.4496-20.4256 5.19893334z m-75.53066667-405.86026667l-100.1856 45.09973333a14.86293333 14.86293333 0 0 1-12.82773333-0.29973333l-88.608-45.09013333c-7.33973333-3.7376-10.26133333-12.74026667-6.53653333-20.10133334 3.68213333-7.3504 12.65066667-10.21866667 20.00106666-6.58133333l82.24746667 41.87733333 93.66933333-42.16746666a14.6784 14.6784 0 0 1 6.10346667-1.31733334c5.65546667 0 11.1104 3.24693333 13.57653333 8.8128 3.424 7.52 0.0672 16.35413333-7.44 19.76746667z"  horiz-adv-x="1024" />

    
    <glyph glyph-name="discuss" unicode="&#58881;" d="M555.8432768 70.21088540999995l309.25888739 0c88.86132736 0 159.24645547 60.09043171 159.24645547 149.88435911L1024.34861966 665.98881394c-0.00116395 89.79625643-80.99185664 168.6120448-169.85434795 168.6120448l-0.00116394 0L166.08852195 834.60085874c-88.89392697 0-160.92886243-78.81462443-160.92886243-168.6120448l0-445.89356942c0-89.79392739 70.35602147-149.88435911 159.2487845-149.88435911l110.46249358 0c0 0 5.13570589-0.36326059 8.2851237-3.51384235s3.1668827-7.71811214 3.1668827-7.71811214 0-65.39612501 0-76.06805276c0-29.88396089 24.63997611-56.95498581 75.86895872-56.95498582 18.62872064 0 35.45744157 13.32302848 35.45744157 13.32302848L555.8432768 70.21088540999995zM164.40495104 133.90946759999997c-47.55912477 0-95.55020231 26.65537081-95.55020231 86.18577692L68.85474987 665.98997789c0 55.89198393 45.44243598 104.91229867 97.23028024 104.91229867l688.4080788 0c54.55188082 0 106.15576576-50.97865899 106.15576576-104.91229867l0-445.89473337c0-59.53157006-47.99457053-86.18577693-95.54787328-86.18577692L547.70485475 133.90946759999997l-12.23091996-2.46248448-11.7978021-4.66183738c0 0-133.07193913-111.02717611-158.12989724-131.21023089-8.01035037-6.45252323-15.52820338-2.37749021-15.52820338 5.19042731s0 99.3527899 0 99.3527899 1.3075035 7.76235463-11.11086762 21.73389596-25.61449074 12.05743957-25.61449074 12.05743958L164.40495104 133.90946759999997zM259.95515335 464.04882318m-63.69974613 0a62.24896 62.24896 0 1 1 127.3994934 0 62.24896 62.24896 0 1 1-127.3994934 0ZM514.75181113 464.04882318m-63.69974614 0a62.24896 62.24896 0 1 1 127.39949341 0 62.24896 62.24896 0 1 1-127.39949341 0ZM769.54963399 464.04882318m-63.69974613 0a62.24896 62.24896 0 1 1 127.3994934 0 62.24896 62.24896 0 1 1-127.3994934 0Z"  horiz-adv-x="1024" />

    
    <glyph glyph-name="timer" unicode="&#59086;" d="M542.117647 774.023529V835.764706h90.352941V896h-240.941176v-60.235294H481.882353v-61.741177c-235.038118-15.661176-421.647059-211.305412-421.647059-450.258823C60.235294 74.631529 262.866824-128 512-128S963.764706 74.631529 963.764706 323.76470600000005c0 238.953412-186.608941 434.597647-421.647059 450.258823zM512-67.76470600000005C296.116706-67.76470600000005 120.470588 107.88141199999995 120.470588 323.76470600000005S296.116706 715.294118 512 715.294118 903.529412 539.648 903.529412 323.76470600000005 727.883294-67.76470600000005 512-67.76470600000005zM542.117647 353.88235299999997h240.941177v-60.235294H481.882353V534.5882349999999h60.235294v-180.705882z"  horiz-adv-x="1024" />

    
    <glyph glyph-name="youxianji" unicode="&#58924;" d="M544-96c-249.6 0-448 198.4-448 448s198.4 448 448 448 448-198.4 448-448-198.4-448-448-448z m0 838.4c-217.6 0-390.4-172.8-390.4-390.4 0-217.6 172.8-390.4 390.4-390.4 217.6 0 390.4 172.8 390.4 390.4 0 217.6-172.8 390.4-390.4 390.4zM492.8 160c-12.8 0-25.6 12.8-25.6 25.6V480L364.8 384c-6.4-12.8-25.6-12.8-38.4 0-6.4 12.8-6.4 25.6 0 38.4l147.2 147.2c6.4 6.4 19.2 6.4 32 6.4 6.4-6.4 12.8-19.2 12.8-25.6v-364.8c0-12.8-12.8-25.6-25.6-25.6zM627.2 160h-12.8c-12.8 6.4-19.2 12.8-19.2 25.6V550.4c6.4 12.8 19.2 25.6 32 25.6s25.6-12.8 25.6-25.6V256l96 96c12.8 12.8 25.6 12.8 38.4 0 12.8-12.8 12.8-25.6 0-38.4L640 166.4c0-6.4-6.4-6.4-12.8-6.4z"  horiz-adv-x="1024" />

    
    <glyph glyph-name="stared" unicode="&#58910;" d="M537.184 48.76800000000003L205.184-125.75999999999999l63.392 369.696L0 505.76l371.168 53.92L537.152 896.032l165.984-336.352 371.168-53.92-268.576-261.824L869.12-125.75999999999999z"  horiz-adv-x="1088" />

    
    <glyph glyph-name="check1" unicode="&#58918;" d="M512 875.30666667c-271.57333333 0-491.73333333-220.16-491.73333333-491.73333334s220.16-491.73333333 491.73333333-491.73333333 491.73333333 220.16 491.73333333 491.73333333-220.16 491.73333333-491.73333333 491.73333334z m-92.16-733.76l-1.70666667 1.70666666-67.2 67.2-161.81333333 161.92 68.90666667 68.90666667 161.92-161.92 346.13333333 346.13333333 68.90666667-68.90666666-415.14666667-415.04z"  horiz-adv-x="1024" />

    
    <glyph glyph-name="star1" unicode="&#58966;" d="M804.64-127.52q-9.28 0-17.408 4.64l-275.2 152.128-276.352-150.944q-20.896-11.616-39.488 1.728t-15.104 35.424l54.592 325.152-225.28 231.072q-15.104 16.256-8.128 37.152t27.872 24.384l177.664 30.176q15.104 3.488 27.296-5.216t15.104-23.808-5.792-27.296-23.808-15.68l-109.152-18.592 189.28-193.92q12.768-12.768 9.28-31.36l-44.128-269.408 228.768 125.408q17.408 9.28 34.848 0l227.584-126.56-42.976 269.408q-3.488 18.592 9.28 31.36l188.128 192.768-257.792 39.488q-18.592 3.488-27.872 20.896l-112.64 242.688-114.944-242.688q-5.792-12.768-20.32-17.984t-27.872 1.152-18.592 20.896 0.576 27.296L479.552 874.592q10.464 20.896 33.664 20.896 23.232 0 32.512-20.896l138.176-294.944 308.896-47.616q22.048-3.488 29.024-24.96t-8.128-36.576l-225.28-229.92 52.256-326.304q4.64-22.048-15.104-34.848-9.28-6.976-20.896-6.976z"  horiz-adv-x="1024" />

    
    <glyph glyph-name="authority" unicode="&#58930;" d="M130.54862222 718.3587555500001l2.04913778-479.32757333c0.62122667-2.52359111 1.09795555-3.98677333 2.15722667-7.49795555 2.74204445-8.77681778 6.47281778-18.57763555 11.41077333-29.25681778a320.73272889 320.73272889 0 0 1 64.14791111-90.91754667c2.56-2.56 5.19281778-5.12 7.89845334-7.71754667 14.84913778-14.11640889 38.03591111-31.34236445 67.91509333-50.61518222 20.37077333-13.16636445 43.52113778-27.06318222 69.08359111-41.58236444 43.88750222-24.86954667 81.55477333-44.61795555 142.22904889-75.30154667l15.39640889-7.82677333a2727.2704 2727.2704 0 0 1 137.76668444 70.32832c74.16718222 40.63118222 131.40309333 77.53159111 160.33109334 104.96113778l7.64245333 7.49795555a320.83626667 320.83626667 0 0 1 64.36750222 91.13713778c6.94840889 14.99477333 10.89763555 26.40554667 13.056 34.56l2.56 481.60312889-384.04209778 117.44483556L130.54862222 718.3587555500001zM514.48035555 893.19310222l412.97123556-126.28195555c15.54318222-4.75477333 26.03918222-18.65272889 25.96522667-34.37795556L950.82040889 230.39999999999998c-0.73159111-3.47363555-17.62759111-86.49272889-102.18154667-166.58432-75.08309333-71.24309333-277.10577778-168.41386667-316.82332444-187.21223111l-11.33681778-5.48522667a18.79608889 18.79608889 0 0 0-16.93240889 0.18318223l-7.75395556 4.0595911c-4.57159111 2.45077333-12.544 6.43640889-23.22318222 11.88636445-67.95150222 34.37795555-227.22218667 114.94627555-292.13696 176.64227555-84.48113778 79.98236445-101.34072889 163.07427555-102.14513778 166.51150223l-0.4755911 5.66840889-2.12081778 496.50005333a36.02204445 36.02204445 0 0 0 25.96636444 34.304L514.51790222 893.19310222h-0.03754667z m0.07395556-493.7216a91.43182222 91.43182222 0 1 1 0 182.86023111c-50.49230222-0.00455111-91.42044445-40.93838222-91.42044444-91.42954666 0-50.49230222 40.92814222-91.42499555 91.42044444-91.43068445z m-27.42954666-52.29795555c-74.03975111 14.23928889-125.13962667 82.40696889-118.03989334 157.46958222 7.09859555 75.06147555 70.07232 132.44074667 145.46944 132.54656 75.52682667 0.09329778 138.70762667-57.32352 145.81873778-132.51356444 7.11111111-75.19004445-44.1856-143.43395555-118.38919111-157.50144v-231.13386667h-54.85795556V347.17354666999995h-0.00113777z m54.85909333-130.23232l91.35672889-0.40277334 0.14563555 54.85681778-91.50236444 0.36636444v-54.85909333 0.03868445z"  horiz-adv-x="1024" />

    
    <glyph glyph-name="xinxitishi" unicode="&#58927;" d="M527.519289-128C229.228089-128 0 101.22808899999995 0 368.48071100000004 0 666.771911 229.228089 896 527.519289 896 794.771911 896 1024 666.771911 1024 368.48071100000004 1024 101.22808899999995 794.771911-128 527.519289-128zM512-64c247.421156 0 448 200.578844 448 448S759.421156 832 512 832 64 631.421156 64 384 264.578844-64 512-64zM415.994311 512h160.005689V128h64v-32.005689H415.994311V128h64.011378V480.005689h-64.011378V512zM512 576a64 64 0 1 0 0 128 64 64 0 0 0 0-128z"  horiz-adv-x="1024" />

    
    <glyph glyph-name="repeat" unicode="&#58979;" d="M269.27407445 626.72592555h485.4518511v-145.63555556l194.18074112 194.18074112-194.18074112 194.18074112v-145.63555556H172.18370333v-291.2711111h97.09037112v194.18073998z m485.4518511-485.4518511H269.27407445v145.63555556l-194.18074112-194.18074112 194.18074112-194.18074112v145.63555556h582.54222222V335.45481443000006h-97.09037112v-194.18073998z"  horiz-adv-x="1024" />

    
    <glyph glyph-name="ps" unicode="&#58891;" d="M956.330667 707.669333L793.002667 870.997333 768 896v-128a85.333333 85.333333 0 0 1 85.333333-85.333333h128l-25.002666 25.002666zM853.333333 682.666667a85.333333 85.333333 0 0 0-85.333333 85.333333V896H170.666667a85.333333 85.333333 0 0 1-85.333334-85.333333v-853.333334a85.333333 85.333333 0 0 1 85.333334-85.333333h725.333333a85.333333 85.333333 0 0 1 85.333333 85.333333V682.666667h-128zM295.978667 527.104h138.922666c79.786667 0 119.68-33.962667 119.68-101.845333 0-68.522667-40.192-102.784-120.618666-102.784H347.136V192H295.978667V527.104z m51.157333-43.648v-117.333333h83.541333c25.344 0 43.818667 4.693333 55.381334 14.08 11.562667 9.685333 17.365333 24.704 17.365333 45.056 0 20.949333-5.930667 35.669333-17.834667 44.117333-11.562667 9.386667-29.866667 14.08-54.912 14.08H347.136zM791.082667 364.672h-48.341334c-3.754667 13.141333-9.557333 22.229333-17.322666 27.221333-8.490667 5.632-21.333333 8.448-38.485334 8.448-15.658667 0-26.922667-2.176-33.792-6.570666a22.869333 22.869333 0 0 1-13.141333-21.546667c0-8.149333 6.528-15.317333 19.669333-21.589333 8.149333-3.456 24.405333-8.277333 48.853334-14.506667 27.221333-6.570667 47.701333-14.250667 61.482666-22.997333 19.370667-12.245333 29.098667-29.141333 29.098667-50.688 0-51.285333-36.010667-76.970667-107.946667-76.970667-66.346667 0-102.272 28.330667-107.946666 84.906667h48.853333c2.816-16.256 8.576-27.818667 17.322667-34.688 8.789333-6.272 22.229333-9.386667 40.405333-9.386667 38.741333 0 58.154667 10.922667 58.154667 32.853333 0 11.904-7.168 21.12-21.589334 27.690667-7.509333 3.754667-23.808 8.448-48.853333 14.037333-28.757333 6.570667-48.810667 13.653333-60.074667 21.162667-18.730667 11.861333-28.117333 28.16-28.117333 48.810667 0 22.229333 9.045333 39.424 27.221333 51.626666 18.176 12.501333 41.898667 18.773333 71.338667 18.773334 63.189333-0.085333 97.578667-25.557333 103.210667-76.586667z"  horiz-adv-x="1024" />

    
    <glyph glyph-name="label" unicode="&#59095;" d="M844.04906667 243.09760000000006c16.93013333 18.56853333 25.66826667 39.86773333 25.66826666 63.8976 0 24.576-8.73813333 46.42133333-26.2144 64.98986667L451.92533333 763.01653333c-15.29173333 15.29173333-36.59093333 28.94506667-62.80533333 40.41386667-26.2144 10.92266667-50.24426667 16.384-72.0896 16.384H88.74666667c-24.576 0-46.42133333-9.28426667-64.44373334-27.30666667-18.0224-18.0224-27.30666667-39.86773333-27.30666666-64.44373333v-227.19146667c0-23.48373333 5.46133333-48.60586667 16.384-72.63573333 12.01493333-27.8528 24.576-48.05973333 40.41386666-62.80533333L445.37173333-25.600000000000023c17.47626667-17.47626667 39.3216-26.76053333 64.44373334-26.76053333 24.576 0 46.42133333 8.73813333 64.98986666 26.2144l268.6976 268.6976 0.54613334 0.54613333z m-31.67573334 30.03733333l-267.60533333-267.60533333c-10.92266667-9.8304-21.2992-14.19946667-34.95253333-14.19946667-13.65333333 0-24.02986667 4.36906667-33.86026667 13.65333334L84.3776 396.56106667l-0.54613333 0.54613333c-10.92266667 10.37653333-20.75306667 25.66826667-30.03733334 48.05973333v0.54613334c-8.192 18.56853333-12.56106667 37.6832-12.56106666 55.15946666V728.064c0 13.1072 4.9152 24.02986667 14.19946666 33.86026667s20.75306667 14.19946667 33.86026667 14.19946666h228.28373333c16.384 0 34.95253333-4.36906667 55.15946667-13.1072 20.75306667-8.73813333 37.6832-19.6608 48.60586667-31.1296l390.48533333-389.9392c9.8304-10.37653333 14.19946667-21.84533333 14.19946667-34.95253333 0-12.56106667-4.36906667-24.02986667-13.65333334-33.86026667zM242.75626667 670.72c-13.65333333 13.65333333-30.03733333 20.20693333-49.152 20.20693333s-35.49866667-6.5536-49.152-20.20693333-20.20693333-30.03733333-20.20693334-49.152 6.5536-35.49866667 20.20693334-49.152 30.03733333-20.20693333 49.152-20.20693333 35.49866667 6.5536 49.152 20.20693333c13.65333333 14.19946667 21.2992 30.58346667 20.20693333 49.152 0 19.11466667-6.5536 35.49866667-20.20693333 49.152zM983.8592 423.3216l-358.8096 358.8096c-33.31413333 33.31413333-80.82773333 48.60586667-127.24906667 40.96-12.01493333-1.6384-20.20693333-13.1072-18.0224-25.12213333 1.6384-12.01493333 13.1072-20.20693333 25.12213334-18.0224 32.768 5.46133333 66.62826667-5.46133333 90.112-28.94506667l358.8096-358.8096c19.6608-19.6608 30.58346667-45.8752 30.58346666-74.27413333 0-27.8528-10.92266667-53.52106667-30.58346666-73.18186667L724.992 15.906133329999989c-16.384-16.384-37.13706667-26.76053333-60.6208-30.03733333-12.01493333-1.6384-20.20693333-12.56106667-18.56853333-24.576 1.6384-10.92266667 10.92266667-18.56853333 21.84533333-18.56853333h3.2768c33.31413333 4.9152 62.80533333 19.11466667 85.74293333 42.05226666l228.82986667 228.82986667c27.8528 27.30666667 43.14453333 64.44373333 43.14453333 103.76533333-1.09226667 40.96-16.384 78.09706667-44.78293333 105.94986667z"  horiz-adv-x="1024" />

    
    <glyph glyph-name="archive" unicode="&#59143;" d="M64 716.8a12.8 12.8 0 0 1-12.8-12.8v-128c0-7.04 5.76-12.8 12.8-12.8h896a12.8 12.8 0 0 1 12.8 12.8V704a12.8 12.8 0 0 1-12.8 12.8H64zM64 768h896a64 64 0 0 0 64-64v-128a64 64 0 0 0-64-64H64a64 64 0 0 0-64 64V704a64 64 0 0 0 64 64zM177.792 512a12.8 12.8 0 0 1-12.8-12.8v-512c0-7.04 5.76-12.8 12.8-12.8h668.416a12.8 12.8 0 0 1 12.8 12.8v512a12.8 12.8 0 0 1-12.8 12.8H177.792z m0 51.2h668.416a64 64 0 0 0 64-64v-512a64 64 0 0 0-64-64H177.792a64 64 0 0 0-64 64v512a64 64 0 0 0 64 64zM405.312 261.696a12.8 12.8 0 0 1-12.8-12.8v-42.688c0-7.04 5.76-12.8 12.8-12.8h213.376a12.8 12.8 0 0 1 12.8 12.8v42.688a12.8 12.8 0 0 1-12.8 12.8H405.312z m0 51.2h213.376a64 64 0 0 0 64-64v-42.688a64 64 0 0 0-64-64H405.312a64 64 0 0 0-64 64v42.688a64 64 0 0 0 64 64z"  horiz-adv-x="1024" />

    
    <glyph glyph-name="audio" unicode="&#58899;" d="M953.670516 694.30303v-775.043878A46.902303 46.902303 0 0 0 907.125062-128H115.852335a46.902303 46.902303 0 0 0-46.545455 47.259152V848.740848A46.902303 46.902303 0 0 0 115.852335 896h651.636363zM953.670516 694.30303H798.519001l155.151515-170.666666V694.30303zM954.694516 694.30303H814.034153a46.545455 46.545455 0 0 0-46.545455 46.545455V896zM544.148092 632.242424H503.731122v-310.30303c-71.633455 23.396848-126.929455-16.508121-138.488242-69.011394a55.854545 55.854545 0 0 1 11.248485-44.06303c40.696242-47.476364 129.411879-25.351758 170.201212 25.708606C564.783244 257.225697 565.791728 273.361455 565.791728 321.939394V523.636364c25.072485-18.199273 50.843152-38.787879 60.974546-71.369697a131.599515 131.599515 0 0 0-8.766061-70.981819 19.145697 19.145697 0 0 1-4.980363-14.661818c17.578667-12.76897 26.220606 14.336 31.26303 25.677576a186.305939 186.305939 0 0 1 12.536242 37.950061c19.611152 112.174545-102.4 116.456727-112.67103 201.883151"  horiz-adv-x="1024" />

    
    <glyph glyph-name="open" unicode="&#59098;" d="M20.75990841 829.73114151v-294.95187594c0-20.80775673 16.88866321-37.69641996 37.69641995-37.69641994s37.69000572 16.88866321 37.69000572 37.69641994V747.62901878l239.68688459-239.76385533a36.18907629 36.18907629 0 0 1 51.12781408 0 36.17624782 36.17624782 0 0 1 0 51.12139987l-239.76385531 239.68688459H360.04693063a37.70283419 37.70283419 0 0 1 37.69641996 37.69000572 37.71566263 37.71566263 0 0 1-37.69641996 37.69641996H65.08864046c-27.51703957 0.00641422-44.32873204-14.17544463-44.32873205-44.32873208zM958.91777378 874.06628781h-294.95187596a37.71566263 37.71566263 0 0 1-37.69641996-37.69641996 37.71566263 37.71566263 0 0 1 37.69641996-37.69000572h212.84333897l-239.74461263-239.68688456a36.19549052 36.19549052 0 0 1 0-51.12139987 36.17624782 36.17624782 0 0 1 51.11498563 0l239.68047035 239.7638553v-212.84975319a37.70283419 37.70283419 0 0 1 75.39283991 0V829.73114151c-0.01282847 30.15328741-16.7475502 44.33514628-44.33514627 44.3351463zM65.08864046-106.05987359000005h294.95187596c20.80775673 0 37.69641996 16.88866321 37.69641995 37.69641996s-16.88866321 37.69641996-37.69641995 37.69641997H147.19076321l239.76385531 239.68047034a36.18907629 36.18907629 0 0 1 0 51.12781409 36.20190476 36.20190476 0 0 1-51.12781409 0l-239.68688457-239.77026955v212.85616743c0 20.80134251-16.88224898 37.69641996-37.69000573 37.69641997s-37.69641996-16.89507744-37.69641995-37.69641997v-294.95187596c0.00641422-30.16611588 16.81810671-44.33514628 44.33514628-44.33514628zM1003.24009159-61.737555749999956v294.95187594a37.70283419 37.70283419 0 0 1-75.39283989 0v-212.84975319l-239.68047037 239.77026955c-14.09205967 14.08564544-36.94595523 14.08564544-51.11498564 0a36.20831899 36.20831899 0 0 1 0-51.13422834l239.74461265-239.67405612h-212.83692476a37.71566263 37.71566263 0 0 1-37.69641995-37.69641994 37.71566263 37.71566263 0 0 1 37.69641995-37.69641996h294.94546173c27.60042454 0.00641422 44.33514628 14.17544463 44.33514628 44.32873206z"  horiz-adv-x="1024" />

    
    <glyph glyph-name="flag" unicode="&#59530;" d="M929.52380967 298.85714299999995V650.857143q-96.571429-52-174.857143-52-46.857143 0-82.857143 18.285714-57.142857 28-105.142857 43.714286T464.95238067 676.571429q-98.857143 0-230.285714-72.571429v-342.285714q140 64.571429 247.428571 64.571428 31.428571 0 59.142858-4.285714t56-14.857143 44-17.714286 47.142857-22.571428l16-8q25.142857-12.571429 57.714285-12.571429 68.571429 0 167.428572 52.571429zM161.52380967 749.714286q0-20-10-36.571429T124.95238067 686.857143v-723.428572q0-8-5.142857-13.142857t-13.142857-5.142857h-36.571429q-8 0-13.142857 5.142857t-5.142857 13.142857V686.857143q-16.571429 9.714286-26.571428 26.285714T15.23809567 749.714286q0 30.285714 21.428571 51.714285T88.38095267 822.857143t51.714285-21.428572T161.52380967 749.714286z m841.142857-36.571429v-436q0-22.285714-20-32.571428-5.714286-2.857143-9.714286-5.142858-124.571429-66.285714-210.857143-66.285714-50.285714 0-90.285714 20l-16 8q-36.571429 18.857143-56.571428 27.428572t-52 16.571428-65.142858 8q-58.285714 0-134.571428-25.142857T216.95238067 169.71428600000002q-8.571429-5.142857-18.857143-5.142857-9.142857 0-18.285714 4.571428-18.285714 10.857143-18.285714 32V625.142857q0 20 17.714286 31.428572 20 12 44.857142 24.285714t65.142858 29.714286T376.38095267 738.857143t88.571428 10.857143q64 0 119.428572-17.714286t119.428571-49.142857q21.714286-10.857143 50.857143-10.857143 69.714286 0 177.142857 64 12.571429 6.857143 17.714286 9.714286 17.714286 9.142857 35.428571-1.142857 17.714286-11.428571 17.714286-31.428572z"  horiz-adv-x="1024" />

    
    <glyph glyph-name="filter2" unicode="&#58933;" d="M32.80335707 896.00024272z m31.99969155 0z m31.99969153 0z m32.00098607 0z m31.99969154 0z m31.99969154 0z m31.99969153 0z m31.99969153 0z m32.00098607 0z m31.99969154 0z m31.99969154 0z m31.99969154 0z m32.00098606 0z m31.99969156 0z m32.00098606 0z m31.99969154 0z m31.99969154 0z m31.99969153 0z m31.99969154 0z m32.00098607 0z m31.99969153 0z m31.99969154 0z m31.99969153 0z m31.99969154 0z m32.00098607 0z m31.99969154 0z m31.99969153 0z m31.99969154 0z m31.99969154 0z m32.00098608 0z m31.99969153 0z m-991.99949937-31.99969152z m0-31.99969155z m0-32.00098607z m0-31.99969153z m0-31.99969154z m0-31.99969154z m0-32.00098607z m0-31.99969153z m0-32.00098608z m0-31.99969154z m0-31.99969154z m0-31.99969153z m0-31.99969153z m0-32.00098608z m0-31.99969153z m0-31.99969154z m0-31.99969154z m0-31.99969153z m0-32.00098608z m0-31.99969153z m0-31.99969153z m0-31.99969154z m0-31.99969154z m0-32.00098608z m0-31.99969153z m0-32.00098607z m0-31.99969154z m0-31.99969154z m0-31.99969153z m0-32.00098607z m0-31.99969155z m0 428.8196861v102.14424777h494.67284795c16.99987659 0 27.43256051 3.06417209 36.48008849 19.99026 27.94390313 53.9913077 74.0566509 81.78763346 134.9038333 81.78763346s105.35599724-27.43256051 133.15491207-80.25748923c9.34009363-17.65620749 19.77148302-21.8880531 37.93773859-21.88805309 60.92097106 0.94760202 121.91702533 0 184.95586102 0v-100.97527973c-7.29472317-0.51004809-15.17587216-1.38645049-23.05702116-1.45894463-39.1792008 0-78.43219026-1.31136727-117.61139106 0.36635434-41.66083067 1.82400443-71.35494953-3.28553813-100.10276092-45.38003912-60.41221751-88.20854329-197.94266896-72.96017698-248.79342681 22.32690157-9.92522493 18.5326099-20.42781392 23.2007149-39.90932037 23.12822077-153.21637168-0.72882505-306.43403789-0.43755394-459.65299865-0.43755394z m663.94019966 102.72808453c-28.18339271-0.35081987-50.8934776-23.27709266-50.89347762-51.50967783 0-28.45006759 23.06349385-51.51356144 51.51356144-51.51356143 0.21748243 0 0.43625939 0 0.65374183 0.00517814 28.15102925 0.35081987 50.85981962 23.27709266 50.85981963 51.50967784 0 28.45006759-23.06478838 51.51356144-51.51356146 51.51356145-0.21748243 0-0.43625939 0-0.65374183-0.00517817z m358.45246924-360.27906275v-100.97527972h-41.29577086c-167.80840707 0-335.61810868 0-503.06275049 0.43755394-18.38632707 0-28.67402272-4.59690541-37.94032767-21.88805311-28.45524575-53.47996507-74.78418142-81.27758539-135.63265833-80.69374862-1.02786338-0.02589076-2.23825667-0.04271977-3.45123903-0.04271975-56.56484978 0-105.46862206 32.79065442-128.74571474 80.39988843-9.78541479 18.79410663-20.50936983 22.73338658-38.53193164 22.29842172-43.77610619-1.01880162-87.55221238 0-132.78855774 0v100.61280902c43.4110464 0 87.55221238 1.01880162 131.7658725-0.43755394 19.33651817-0.65762544 29.84169623 3.86678581 39.68924888 22.61817268 23.71076299 48.22155061 72.48119783 80.82579152 128.86869585 80.82579152 1.42787571 0 2.85445689-0.02071262 4.27456538-0.06213784 58.96362919 0.00517815 105.87640162-26.62606317 133.30766759-79.52348602 10.36018978-19.91776585 21.8880531-23.93212903 41.87960763-23.85704581 168.61231534 0.58383677 337.14954747 0 505.76186279 0z m-716.10491384-102.14424778c28.35944992 0.7340032 51.07341843 23.89976557 51.07341842 52.36925124v0.09450129c-0.68222167 27.99309558-23.54376755 50.43003291-51.64172073 50.43003292-0.49192453 0-0.98255455-0.00776723-1.4744791-0.02071262-27.48175297-0.53076069-49.61447379-22.99488332-49.61447378-50.62421364v-0.08673407c-0.00258907-0.08155591-0.00258907-0.18382444-0.00258908-0.2873875 0-28.52773989 23.12822077-51.65596065 51.65596064-51.65596065z m-305.70391831 719.60793442v100.9778688c63.33010678 0 125.05498611 0.6563309 186.77727637-0.43755393 1.3256072-0.18511897 2.85704596-0.28997657 4.4143755-0.28997659 14.10917262 0 26.1872147 8.68635181 31.18154334 21.00258893 29.26433217 54.80039411 75.52206823 82.96307422 137.68450151 81.94297806 59.97336905-0.94760202 104.40580613-29.84169623 131.33090765-82.37147022 8.9025397-17.21735902 19.33392909-20.2103315 36.11373416-20.13783736 152.19627552 0.43755394 304.31746782 0 456.51374333 0h37.42769051v-100.9778688h-492.70126617c-18.09376142 0-28.45524575-3.86549129-37.79533938-21.8880531-25.64480317-48.7691403-75.96609485-81.46011529-133.91739513-81.46011528s-108.27129742 32.68968044-133.52126641 80.63678894c-9.66113911 18.69960533-20.24269495 22.71137943-38.26266769 22.71137944-61.21353671-0.21748243-121.99081403 0.29256565-185.24842666 0.29256566z m408.57828567 51.07212388c-1.048576 28.41123145-24.3269632 51.05270581-52.89353924 51.0721239-27.55424711-0.64985822-49.67143348-23.01947955-49.90703945-50.6125628-0.02071262-0.54629515-0.03106892-1.16120083-0.03106892-1.77740105 0-27.84292915 22.5715693-50.41708752 50.41708753-50.41708752 0.24337319 0 0.48415731 0.00258907 0.72494144 0.00517814 28.34132638 0.28220933 51.28701725 23.15022791 51.69220772 51.47213623z"  horiz-adv-x="1024" />

    
    <glyph glyph-name="users1" unicode="&#59308;" d="M947.2-25.6h-563.2c-42.3424 0-76.8 34.4576-76.8 76.8 0 2.4576 0.5632 60.928 47.3088 118.528 26.88 33.0752 63.5392 59.2896 108.9536 77.9264 54.8352 22.528 122.88 33.8944 202.1376 33.8944s147.2512-11.4176 202.1376-33.8944c45.4144-18.6368 82.0736-44.8512 108.9536-77.9264 46.7968-57.6 47.3088-116.0704 47.3088-118.528 0-42.3424-34.4576-76.8-76.8-76.8zM358.4 51.0464a25.6 25.6 0 0 1 25.6-25.4464h563.2a25.6 25.6 0 0 1 25.6 25.4464c-0.0512 1.792-1.6384 45.824-37.8368 88.7808-49.8688 59.2384-143.0016 90.5216-269.3632 90.5216s-219.4944-31.3344-269.3632-90.5216c-36.1984-43.008-37.7856-86.9888-37.8368-88.7808zM665.6 332.8c-112.9472 0-204.8 91.8528-204.8 204.8s91.8528 204.8 204.8 204.8 204.8-91.8528 204.8-204.8-91.8528-204.8-204.8-204.8z m0 358.4c-84.6848 0-153.6-68.9152-153.6-153.6s68.9152-153.6 153.6-153.6 153.6 68.9152 153.6 153.6-68.9152 153.6-153.6 153.6zM230.4-25.6h-153.6C34.4576-25.6 0 8.8576 0 51.2c0 1.8944 0.4096 47.4624 33.9456 92.16 19.3536 25.856 45.7728 46.2848 78.4896 60.8256 39.1168 17.408 87.4496 26.2144 143.616 26.2144 9.1648 0 18.2272-0.256 26.9824-0.7168a25.6 25.6 0 0 0-2.7136-51.1488 465.92 465.92 0 0 1-24.2176 0.6144c-199.3728 0-204.6464-121.8048-204.8-128.1536a25.6 25.6 0 0 1 25.6-25.4464h153.6a25.6 25.6 0 0 0 0-51.2zM256 281.6c-84.6848 0-153.6 68.9152-153.6 153.6s68.9152 153.6 153.6 153.6 153.6-68.9152 153.6-153.6-68.9152-153.6-153.6-153.6z m0 256c-56.4736 0-102.4-45.9264-102.4-102.4s45.9264-102.4 102.4-102.4 102.4 45.9264 102.4 102.4-45.9264 102.4-102.4 102.4z"  horiz-adv-x="1024" />

    
    <glyph glyph-name="Word" unicode="&#58926;" d="M955.73 691.2v-750.93a68.47 68.47 0 0 0-68.26-68.27H136.53a68.47 68.47 0 0 0-68.27 68.27V827.73A68.47 68.47 0 0 0 136.53 896h614.4zM955.73 691.2H819.2a68.27 68.27 0 0 0-68.27 68.27V896zM614.41 153.6a25.61 25.61 0 0 0-24 16.6L512 379.37 433.58 170.2a25.6 25.6 0 0 0-47.93 0l-102.4 273.07a25.6 25.6 0 1 0 47.93 18l78.43-209.17L488 461.27a25.6 25.6 0 0 0 47.93 0l78.48-209.17 78.43 209.17a25.6 25.6 0 1 0 47.93-18L638.38 170.2a25.61 25.61 0 0 0-23.97-16.6z"  horiz-adv-x="1024" />

    
    <glyph glyph-name="xiangmuneirong" unicode="&#58919;" d="M512-129.82999999999993c-69.3638 0-136.655 13.5314-200.046 40.3505-61.1962 25.8438-116.175 62.9028-163.353 110.08s-84.2362 102.156-110.08 163.353c-26.8191 63.3905-40.3505 130.682-40.3505 199.924 0 69.3638 13.5314 136.655 40.3505 200.046 25.8438 61.1962 62.9028 116.175 110.08 163.353s102.156 84.2362 163.353 110.08c63.3905 26.8191 130.682 40.3505 200.046 40.3505 69.3638 0 136.655-13.5314 199.924-40.3505 61.1962-25.8438 116.175-62.9028 163.353-110.08s84.2362-102.156 110.08-163.353c26.8191-63.3905 40.3505-130.682 40.3505-200.046 0-69.3638-13.5314-136.655-40.3505-199.924-25.8438-61.1962-62.9028-116.175-110.08-163.353s-102.156-84.2362-163.353-110.08c-63.2686-26.8191-130.56-40.3505-199.924-40.3505Zm0 1008.03c-66.6819 0-131.413-13.0438-192.366-38.7658-59.1238-24.9905-111.908-60.5867-157.135-105.935-45.4705-45.5924-81.1886-98.4991-105.935-157.135-25.7219-60.9524-38.7658-125.684-38.7658-192.366 0-66.6819 13.0438-131.413 38.7658-192.366 24.9905-59.1238 60.5867-111.908 105.935-157.135 45.5924-45.4705 98.4991-81.1886 157.135-105.935 61.0742-25.8438 125.806-38.8876 192.366-38.8876 66.56 0 131.292 13.0438 192.366 38.8876 59.1238 24.9905 111.908 60.5867 157.135 105.935 45.4705 45.5924 81.1886 98.4991 105.935 157.135 25.8438 61.0742 38.8876 125.806 38.8876 192.244 0 66.56-13.0438 131.292-38.8876 192.366-24.9905 59.1238-60.5867 111.908-105.935 157.135-45.5924 45.4705-98.4991 81.1886-157.135 105.935-60.8305 25.8438-125.562 38.8876-192.366 38.8876ZM387.535 363.52h201.631c11.2153 0 23.2838 9.38667 23.2838 23.2838 0 13.5314-9.75238 23.2838-23.2838 23.2838H387.535c-13.5314 0-23.2838-9.75238-23.2838-23.2838 0-13.4095 9.87428-23.2838 23.2838-23.2838ZM649.265 524.556H387.535c-13.5314 0-23.2838-9.75238-23.2838-23.2838s9.75238-23.2838 23.2838-23.2838h261.729c13.5314 0 23.2838 9.75238 23.2838 23.2838 0.121905 13.5314-9.75238 23.2838-23.2838 23.2838ZM649.265 295.741H387.535c-13.5314 0-23.2838-9.75238-23.2838-23.2838s9.75238-23.2838 23.2838-23.2838h261.729c13.5314 0 23.2838 9.75238 23.2838 23.2838 0.121905 13.5314-9.75238 23.2838-23.2838 23.2838ZM742.278 696.198H281.722c-29.1353 0-51.9314-22.7962-51.9314-51.9314v-520.655c0-29.1353 22.7962-51.9314 51.9314-51.9314h460.556c28.6476 0 51.9314 23.2838 51.9314 51.9314V644.267c0 29.1353-22.7962 51.9314-51.9314 51.9314Zm5.24191-572.465c0-2.31619-2.92572-5.36381-5.36381-5.36381H281.722c-2.31619 0-5.24191 2.92572-5.24191 5.36381v520.533c0 2.07238 1.46286 5.24191 5.24191 5.24191h460.556c2.31619 0 5.36381-2.92572 5.36381-5.24191v-520.533h-0.121905Z"  horiz-adv-x="1024" />

    
    <glyph glyph-name="shijian" unicode="&#58890;" d="M512-128.073143a512 512 0 1 0 0 1024 512 512 0 0 0 0-1024z m0 73.142857a438.857143 438.857143 0 1 1 0 877.714286 438.857143 438.857143 0 0 1 0-877.714286z m185.344 438.564572a36.571429 36.571429 0 1 0 0-73.142857h-219.428571a36.571429 36.571429 0 0 0-36.571429 36.571428v292.571429a36.571429 36.571429 0 1 0 73.142857 0v-256h182.857143z"  horiz-adv-x="1024" />

    
    <glyph glyph-name="icon--" unicode="&#59166;" d="M589.672 495.849h-124.276v124.276c0 18.6414-12.4276 31.0689-31.0689 31.0689s-31.0689-12.4276-31.0689-31.0689v-124.276h-124.276c-18.6414 0-31.0689-6.21378-31.0689-21.7483 0-18.6414 12.4276-40.3897 31.0689-40.3897h124.276v-124.276c0-18.6414 12.4276-31.0689 31.0689-31.0689s31.0689 12.4276 31.0689 31.0689v124.276h124.276c18.6414 0 31.0689 12.4276 31.0689 31.0689 0 15.5344-12.4276 31.0689-31.0689 31.0689Zm410.11-556.133l-257.872 251.659c68.3517 74.5654 108.741 170.879 108.741 276.513 0 226.803-186.414 410.11-419.43 410.11C201.311 881.103 14.897 697.795 14.897 470.993s186.414-410.11 419.43-410.11c99.4205 0 192.627 34.1758 264.086 93.2067l257.872-254.766c12.4276-12.4276 34.1758-12.4276 46.6034 0 9.32067 9.32067 9.32067 27.962-3.10689 40.3897Zm-565.454 180.201c-195.734 0-354.186 155.344-354.186 347.972C80.142 660.513 238.593 818.9639999999999 434.328 818.9639999999999c195.734 0 354.186-155.344 354.186-347.972 0-192.627-158.451-351.078-354.186-351.078Z"  horiz-adv-x="1024" />

    
    <glyph glyph-name="zip" unicode="&#59069;" d="M657.842424 866.33503h-508.896969c-15.515152 0-24.824242-12.412121-24.824243-34.133333v-924.70303c0-6.206061 12.412121-18.618182 24.824243-18.618182h701.284848c15.515152 0 24.824242 12.412121 24.824242 18.618182v732.315151c0 12.412121-3.10303 15.515152-3.10303 18.618182l-204.8 201.69697c0 6.206061-3.10303 6.206061-9.309091 6.20606zM853.333333-108.01648499999999h-701.284848c-15.515152 0-24.824242 12.412121-24.824243 24.824243v266.860606h754.036364v-266.860606c-3.10303-12.412121-15.515152-24.824242-27.927273-24.824243zM667.151515 866.33503v-211.00606h211.006061zM480.969697-22.496970000000033h-86.884849c3.10303 3.10303 6.206061 6.206061 6.206061 9.309091l55.854546 68.266667c9.309091 9.309091 15.515152 18.618182 18.618181 21.721212v34.133333h-130.327272v-37.236363h77.575757c-3.10303-6.206061-6.206061-6.206061-6.20606-6.206061l-58.957576-71.369697c-9.309091-9.309091-12.412121-15.515152-18.618182-21.721212v-34.133333h139.636364v37.236363z m15.515151 130.327273c0-9.309091 3.10303-15.515152 3.103031-31.030303v-108.606061c0-12.412121 0-21.721212-3.103031-31.030303h43.442425c0 9.309091-3.10303 15.515152-3.103031 31.030303v108.606061c0 15.515152 0 21.721212 3.103031 31.030303h-43.442425z m114.812122-167.563636h-43.442425c0 9.309091 3.10303 18.618182 3.103031 31.030303v108.60606c0 9.309091 0 18.618182-3.103031 27.927273h74.472728c40.339394 0 62.060606-18.618182 62.060606-52.751515 0-37.236364-21.721212-55.854545-62.060606-55.854546h-31.030303v-24.824242c-3.10303-15.515152-3.10303-24.824242 0-34.133333z m-3.103031 89.987878h31.030303c15.515152 0 21.721212 9.309091 21.721213 21.721213s-9.309091 21.721212-21.721213 21.721212h-31.030303v-43.442425zM300.993939 837.042424h65.163637v-43.442424h-65.163637v43.442424z m-65.163636-43.442424h65.163636v-43.442424h-65.163636v43.442424z m65.163636-43.442424h65.163637v-43.442424h-65.163637V750.1575760000001z m-65.163636-43.442424h65.163636v-43.442425h-65.163636v43.442425z m65.163636-46.545455h65.163637v-43.442424h-65.163637v43.442424z m-65.163636-43.442424h65.163636v-43.442425h-65.163636v43.442425z m65.163636-43.442425v-43.442424h-65.163636v-152.048485c0-12.412121 9.309091-21.721212 21.721212-21.721212h86.884849c12.412121 0 21.721212 9.309091 21.721212 21.721212v198.59394l-65.163637-3.103031z m43.442425-173.769696h-86.884849v43.442424h86.884849v-43.442424z"  horiz-adv-x="1024" />

    
    <glyph glyph-name="rar" unicode="&#59070;" d="M665.910303 866.33503h-508.89697c-15.515152 0-24.824242-12.412121-24.824242-34.133333v-924.70303c0-6.206061 12.412121-18.618182 24.824242-18.618182h701.284849c15.515152 0 24.824242 12.412121 24.824242 18.618182v732.315151c0 12.412121-3.10303 15.515152-3.10303 18.618182l-204.8 201.69697c0 6.206061-3.10303 6.206061-9.309091 6.20606zM861.401212-108.01648499999999h-701.284848c-15.515152 0-24.824242 12.412121-24.824243 24.824243v266.860606h754.036364v-266.860606c-3.10303-12.412121-15.515152-24.824242-27.927273-24.824243zM675.219394 866.33503v-211.00606h211.006061zM418.909091-59.733333000000016h-46.545455c0 6.206061-3.10303 15.515152-9.309091 31.030303-6.206061 18.618182-9.309091 21.721212-12.412121 27.927272-3.10303 3.10303-9.309091 6.206061-15.515151 6.206061h-21.721212v-34.133333c0-12.412121 0-21.721212 3.10303-31.030303h-43.442424c0 9.309091 3.10303 15.515152 3.10303 31.030303v108.60606c0 12.412121 0 18.618182-3.10303 31.030303h83.781818c31.030303 0 52.751515-15.515152 52.751515-46.545454 0-15.515152-3.10303-24.824242-12.412121-34.133334-6.206061-3.10303-9.309091-6.206061-18.618182-9.30909 9.309091-3.10303 15.515152-9.309091 21.721212-21.721213 3.10303-6.206061 6.206061-12.412121 15.515152-34.133333-6.206061-9.309091-3.10303-12.412121 3.10303-24.824242z m-108.606061 99.296969h31.030303c12.412121 0 18.618182 6.206061 18.618182 18.618182 0 12.412121-6.206061 18.618182-18.618182 18.618182h-31.030303v-37.236364z m285.478788-99.296969h-46.545454c-3.10303 9.309091-3.10303 15.515152-6.206061 21.721212l-6.206061 18.618182h-55.854545l-6.206061-18.618182c-3.10303-9.309091-3.10303-15.515152-6.20606-21.721212h-46.545455c3.10303 6.206061 6.206061 9.309091 9.309091 24.824242l43.442424 121.018182c3.10303 9.309091 6.206061 15.515152 6.206061 21.721212h52.751515c0-6.206061 3.10303-12.412121 6.206061-21.721212l43.442424-121.018182c6.206061-9.309091 9.309091-18.618182 12.412121-24.824242z m-65.163636 74.472727l-18.618182 58.957576-18.618182-58.957576h37.236364z m229.624242-74.472727h-46.545454c0 6.206061-3.10303 15.515152-9.309091 31.030303-6.206061 18.618182-9.309091 21.721212-12.412121 27.927272-3.10303 3.10303-9.309091 6.206061-15.515152 6.206061h-21.721212v-34.133333c0-12.412121 0-21.721212 3.10303-31.030303h-43.442424c0 9.309091 3.10303 15.515152 3.10303 31.030303v108.60606c0 12.412121 0 18.618182-3.10303 31.030303h83.781818c31.030303 0 52.751515-15.515152 52.751515-46.545454 0-15.515152-3.10303-24.824242-12.412121-34.133334-6.206061-3.10303-9.309091-6.206061-18.618182-9.30909 9.309091-3.10303 15.515152-9.309091 21.721212-21.721213 3.10303-6.206061 6.206061-12.412121 15.515152-34.133333-6.206061-9.309091-3.10303-12.412121 3.10303-24.824242z m-108.60606 99.296969h31.030303c12.412121 0 18.618182 6.206061 18.618181 18.618182 0 12.412121-6.206061 18.618182-18.618181 18.618182h-31.030303v-37.236364zM307.2 837.042424h65.163636v-43.442424h-65.163636v43.442424z m-65.163636-43.442424h65.163636v-43.442424h-65.163636v43.442424z m65.163636-43.442424h65.163636v-43.442424h-65.163636V750.1575760000001z m-65.163636-43.442424h65.163636v-43.442425h-65.163636v43.442425z m65.163636-46.545455h65.163636v-43.442424h-65.163636v43.442424z m-65.163636-43.442424h65.163636v-43.442425h-65.163636v43.442425z m65.163636-43.442425v-43.442424h-65.163636v-152.048485c0-12.412121 9.309091-21.721212 21.721212-21.721212h86.884848c12.412121 0 21.721212 9.309091 21.721212 21.721212v198.59394l-65.163636-3.103031z m43.442424-173.769696h-86.884848v43.442424h86.884848v-43.442424z"  horiz-adv-x="1024" />

    
    </font>
</defs>
</svg>
